<svg xmlns="http://www.w3.org/2000/svg" width="343.9211120605469" height="318.7274169921875" viewBox="-158.43321228027344 -125.34226989746094 343.9211120605469 318.7274169921875"><title>Neo4j Graph Visualization</title><desc>Created using Neo4j (http://www.neo4j.com/)</desc><g class="layer relationships"><g class="relationship" transform="translate(96.14926824856589 164.38513246933778) rotate(236.0527182425227)"><path class="outline" fill="#A5ABB6" stroke="none" d="M 25 0.5 L 46.20693910996643 0.5 L 46.20693910996643 -0.5 L 25 -0.5 Z M 91.76943910996643 0.5 L 112.97637821993285 0.5 L 112.97637821993285 3.5 L 119.97637821993285 0 L 112.97637821993285 -3.5 L 112.97637821993285 -0.5 L 91.76943910996643 -0.5 Z"/><text text-anchor="middle" pointer-events="none" font-size="8px" fill="#000000" x="68.98818910996643" y="3" transform="rotate(180 68.98818910996643 0)" font-family="sans-serif">ACTED_IN</text></g><g class="relationship" transform="translate(156.4879048910275 8.684098466440416) rotate(525.9213319153021)"><path class="outline" fill="#A5ABB6" stroke="none" d="M 25 0.5 L 46.55545970692033 0.5 L 46.55545970692033 -0.5 L 25 -0.5 Z M 92.11795970692033 0.5 L 113.67341941384066 0.5 L 113.67341941384066 3.5 L 120.67341941384066 0 L 113.67341941384066 -3.5 L 113.67341941384066 -0.5 L 92.11795970692033 -0.5 Z"/><text text-anchor="middle" pointer-events="none" font-size="8px" fill="#000000" x="69.33670970692033" y="3" transform="rotate(180 69.33670970692033 0)" font-family="sans-serif">ACTED_IN</text></g><g class="relationship" transform="translate(57.83201681999263 -96.34227139802331) rotate(466.8874030999558)"><path class="outline" fill="#A5ABB6" stroke="none" d="M 25 0.5 L 52.009301666640724 0.5 L 52.009301666640724 -0.5 L 25 -0.5 Z M 87.78273916664072 0.5 L 114.79204083328145 0.5 L 114.79204083328145 3.5 L 121.79204083328145 0 L 114.79204083328145 -3.5 L 114.79204083328145 -0.5 L 87.78273916664072 -0.5 Z"/><text text-anchor="middle" pointer-events="none" font-size="8px" fill="#000000" x="69.89602041664072" y="3" transform="rotate(180 69.89602041664072 0)" font-family="sans-serif">WROTE</text></g><g class="relationship" transform="translate(-60.955461455483125 -81.23922073973324) rotate(418.72464768763206)"><path class="outline" fill="#A5ABB6" stroke="none" d="M 25 0.5 L 47.05533099806114 0.5 L 47.05533099806114 -0.5 L 25 -0.5 Z M 92.61783099806114 0.5 L 114.67316199612227 0.5 L 114.67316199612227 3.5 L 121.67316199612227 0 L 114.67316199612227 -3.5 L 114.67316199612227 -0.5 L 92.61783099806114 -0.5 Z"/><text text-anchor="middle" pointer-events="none" font-size="8px" fill="#000000" x="69.83658099806114" y="3" font-family="sans-serif">ACTED_IN</text></g><g class="relationship" transform="translate(-129.4332128548102 22.0207831995395) rotate(368.6877907852537)"><path class="outline" fill="#A5ABB6" stroke="none" d="M 25 0.5 L 51.764279722817435 0.5 L 51.764279722817435 -0.5 L 25 -0.5 Z M 87.53771722281743 0.5 L 114.30199694563487 0.5 L 114.30199694563487 3.5 L 121.30199694563487 0 L 114.30199694563487 -3.5 L 114.30199694563487 -0.5 L 87.53771722281743 -0.5 Z"/><text text-anchor="middle" pointer-events="none" font-size="8px" fill="#000000" x="69.65099847281743" y="3" font-family="sans-serif">WROTE</text></g><g class="relationship" transform="translate(-85.96360149399334 149.1006732008863) rotate(313.93633532416504)"><path class="outline" fill="#A5ABB6" stroke="none" d="M 25 0.5 L 45.94686219722992 0.5 L 45.94686219722992 -0.5 L 25 -0.5 Z M 92.83748719722992 0.5 L 113.78434939445984 0.5 L 113.78434939445984 3.5 L 120.78434939445984 0 L 113.78434939445984 -3.5 L 113.78434939445984 -0.5 L 92.83748719722992 -0.5 Z"/><text text-anchor="middle" pointer-events="none" font-size="8px" fill="#000000" x="69.39217469722992" y="3" font-family="sans-serif">DIRECTED</text></g></g><g class="layer nodes"><g class="node" aria-label="graph-node172" transform="translate(15.190129123033762,44.11972583126187)"><circle class="outline" cx="0" cy="0" r="25" fill="#F79767" stroke="#f36924" stroke-width="2px"/><text class="caption" text-anchor="middle" pointer-events="none" x="0" y="-5" font-size="10px" fill="#FFFFFF" font-family="sans-serif"> Captain</text><text class="caption" text-anchor="middle" pointer-events="none" x="0" y="5" font-size="10px" fill="#FFFFFF" font-family="sans-serif"> America:</text><text class="caption" text-anchor="middle" pointer-events="none" x="0" y="15" font-size="10px" fill="#FFFFFF" font-family="sans-serif"> Th</text></g><g class="node" aria-label="graph-node176" transform="translate(96.14926824856589,164.38513246933778)"><circle class="outline" cx="0" cy="0" r="25" fill="#C990C0" stroke="#b261a5" stroke-width="2px"/><text class="caption" text-anchor="middle" pointer-events="none" x="0" y="0" font-size="10px" fill="#FFFFFF" font-family="sans-serif"> Samuel</text><text class="caption" text-anchor="middle" pointer-events="none" x="0" y="10" font-size="10px" fill="#FFFFFF" font-family="sans-serif"> L.Jack…</text></g><g class="node" aria-label="graph-node4" transform="translate(156.4879048910275,8.684098466440416)"><circle class="outline" cx="0" cy="0" r="25" fill="#C990C0" stroke="#b261a5" stroke-width="2px"/><text class="caption" text-anchor="middle" pointer-events="none" x="0" y="0" font-size="10px" fill="#FFFFFF" font-family="sans-serif"> Hugo</text><text class="caption" text-anchor="middle" pointer-events="none" x="0" y="10" font-size="10px" fill="#FFFFFF" font-family="sans-serif"> Weavi…</text></g><g class="node" aria-label="graph-node174" transform="translate(57.83201681999263,-96.34227139802331)"><circle class="outline" cx="0" cy="0" r="25" fill="#C990C0" stroke="#b261a5" stroke-width="2px"/><text class="caption" text-anchor="middle" pointer-events="none" x="0" y="0" font-size="10px" fill="#FFFFFF" font-family="sans-serif"> Stephen</text><text class="caption" text-anchor="middle" pointer-events="none" x="0" y="10" font-size="10px" fill="#FFFFFF" font-family="sans-serif"> McFe…</text></g><g class="node" aria-label="graph-node175" transform="translate(-60.955461455483125,-81.23922073973324)"><circle class="outline" cx="0" cy="0" r="25" fill="#C990C0" stroke="#b261a5" stroke-width="2px"/><text class="caption" text-anchor="middle" pointer-events="none" x="0" y="0" font-size="10px" fill="#FFFFFF" font-family="sans-serif"> Chris</text><text class="caption" text-anchor="middle" pointer-events="none" x="0" y="10" font-size="10px" fill="#FFFFFF" font-family="sans-serif"> Evans</text></g><g class="node" aria-label="graph-node173" transform="translate(-129.4332128548102,22.0207831995395)"><circle class="outline" cx="0" cy="0" r="25" fill="#C990C0" stroke="#b261a5" stroke-width="2px"/><text class="caption" text-anchor="middle" pointer-events="none" x="0" y="5" font-size="10px" fill="#FFFFFF" font-family="sans-serif"> Christop…</text></g><g class="node" aria-label="graph-node171" transform="translate(-85.96360149399334,149.1006732008863)"><circle class="outline" cx="0" cy="0" r="25" fill="#C990C0" stroke="#b261a5" stroke-width="2px"/><text class="caption" text-anchor="middle" pointer-events="none" x="0" y="0" font-size="10px" fill="#FFFFFF" font-family="sans-serif"> Joe</text><text class="caption" text-anchor="middle" pointer-events="none" x="0" y="10" font-size="10px" fill="#FFFFFF" font-family="sans-serif"> Johnst…</text></g></g></svg>