<svg xmlns="http://www.w3.org/2000/svg" width="1143.870849609375" height="965.7586669921875" viewBox="-559.6690063476562 -514.4998168945312 1143.870849609375 965.7586669921875"><title>Neo4j Graph Visualization</title><desc>Created using Neo4j (http://www.neo4j.com/)</desc><g class="layer relationships"><g class="relationship" transform="translate(-258.29984440628795 323.6194380537336) rotate(268.6182396519765)"><path class="outline" fill="#A5ABB6" stroke="none" d="M 25 0.5 L 49.77965110262032 0.5 L 49.77965110262032 -0.5 L 25 -0.5 Z M 84.22496360262032 0.5 L 109.00461470524064 0.5 L 109.00461470524064 3.5 L 116.00461470524064 0 L 109.00461470524064 -3.5 L 109.00461470524064 -0.5 L 84.22496360262032 -0.5 Z"/><text text-anchor="middle" pointer-events="none" font-size="8px" fill="#000000" x="67.00230735262032" y="3" transform="rotate(180 67.00230735262032 0)" font-family="sans-serif">ORIGIN</text></g><g class="relationship" transform="translate(-258.29984440628795 323.6194380537336) rotate(306.9825183549724)"><path class="outline" fill="#A5ABB6" stroke="none" d="M 25 0.5 L 87.76753962916749 0.5 L 87.76753962916749 -0.5 L 25 -0.5 Z M 146.9550396291675 0.5 L 209.72257925833497 0.5 L 209.72257925833497 3.5 L 216.72257925833497 0 L 209.72257925833497 -3.5 L 209.72257925833497 -0.5 L 146.9550396291675 -0.5 Z"/><text text-anchor="middle" pointer-events="none" font-size="8px" fill="#000000" x="117.36128962916749" y="3" font-family="sans-serif">DESTINATION</text></g><g class="relationship" transform="translate(91.45294658306393 -63.37051700202445) rotate(496.5019955364735)"><path class="outline" fill="#A5ABB6" stroke="none" d="M 25 0.5 L 120.12369452004751 0.5 L 120.12369452004751 -0.5 L 25 -0.5 Z M 154.5690070200475 0.5 L 249.69270154009502 0.5 L 249.69270154009502 3.5 L 256.692701540095 0 L 249.69270154009502 -3.5 L 249.69270154009502 -0.5 L 154.5690070200475 -0.5 Z"/><text text-anchor="middle" pointer-events="none" font-size="8px" fill="#000000" x="137.3463507700475" y="3" transform="rotate(180 137.3463507700475 0)" font-family="sans-serif">ORIGIN</text></g><g class="relationship" transform="translate(91.45294658306393 -63.37051700202445) rotate(314.1078496722071)"><path class="outline" fill="#A5ABB6" stroke="none" d="M 25 0.5 L 79.79824985656965 0.5 L 79.79824985656965 -0.5 L 25 -0.5 Z M 138.98574985656967 0.5 L 193.7839997131393 0.5 L 193.7839997131393 3.5 L 200.7839997131393 0 L 193.7839997131393 -3.5 L 193.7839997131393 -0.5 L 138.98574985656967 -0.5 Z"/><text text-anchor="middle" pointer-events="none" font-size="8px" fill="#000000" x="109.39199985656965" y="3" font-family="sans-serif">DESTINATION</text></g><g class="relationship" transform="translate(374.7608539769812 -48.56003975645268) rotate(234.50933557992425)"><path class="outline" fill="#A5ABB6" stroke="none" d="M 25 0.5 L 75.5577954421973 0.5 L 75.5577954421973 -0.5 L 25 -0.5 Z M 134.7452954421973 0.5 L 185.3030908843946 0.5 L 185.3030908843946 3.5 L 192.3030908843946 0 L 185.3030908843946 -3.5 L 185.3030908843946 -0.5 L 134.7452954421973 -0.5 Z"/><text text-anchor="middle" pointer-events="none" font-size="8px" fill="#000000" x="105.1515454421973" y="3" transform="rotate(180 105.1515454421973 0)" font-family="sans-serif">DESTINATION</text></g><g class="relationship" transform="translate(374.7608539769812 -48.56003975645268) rotate(458.905864140165)"><path class="outline" fill="#A5ABB6" stroke="none" d="M 25 0.5 L 77.4791771628165 0.5 L 77.4791771628165 -0.5 L 25 -0.5 Z M 111.9244896628165 0.5 L 164.403666825633 0.5 L 164.403666825633 3.5 L 171.403666825633 0 L 164.403666825633 -3.5 L 164.403666825633 -0.5 L 111.9244896628165 -0.5 Z"/><text text-anchor="middle" pointer-events="none" font-size="8px" fill="#000000" x="94.7018334128165" y="3" transform="rotate(180 94.7018334128165 0)" font-family="sans-serif">ORIGIN</text></g><g class="relationship" transform="translate(478.3121061012111 322.5475069820438) rotate(232.89207385433497)"><path class="outline" fill="#A5ABB6" stroke="none" d="M 25 0.5 L 90.29402832999423 0.5 L 90.29402832999423 -0.5 L 25 -0.5 Z M 124.73934082999423 0.5 L 190.03336915998847 0.5 L 190.03336915998847 3.5 L 197.03336915998847 0 L 190.03336915998847 -3.5 L 190.03336915998847 -0.5 L 124.73934082999423 -0.5 Z"/><text text-anchor="middle" pointer-events="none" font-size="8px" fill="#000000" x="107.51668457999423" y="3" transform="rotate(180 107.51668457999423 0)" font-family="sans-serif">ORIGIN</text></g><g class="relationship" transform="translate(478.3121061012111 322.5475069820438) rotate(426.4442975358527)"><path class="outline" fill="#A5ABB6" stroke="none" d="M 25 0.5 L 26.55173380542991 0.5 L 26.55173380542991 -0.5 L 25 -0.5 Z M 75.2236088054299 0.5 L 76.77534261085982 0.5 L 76.77534261085982 3.5 L 83.77534261085982 0 L 76.77534261085982 -3.5 L 76.77534261085982 -0.5 L 75.2236088054299 -0.5 Z"/><text text-anchor="middle" pointer-events="none" font-size="8px" fill="#000000" x="50.88767130542991" y="3" font-family="sans-serif">DESTINA…</text></g><g class="relationship" transform="translate(387.13526806927587 286.7387921028219) rotate(253.1516354568936)"><path class="outline" fill="#A5ABB6" stroke="none" d="M 25 0.5 L 53.07666778335039 0.5 L 53.07666778335039 -0.5 L 25 -0.5 Z M 87.52198028335039 0.5 L 115.59864806670078 0.5 L 115.59864806670078 3.5 L 122.59864806670078 0 L 115.59864806670078 -3.5 L 115.59864806670078 -0.5 L 87.52198028335039 -0.5 Z"/><text text-anchor="middle" pointer-events="none" font-size="8px" fill="#000000" x="70.29932403335039" y="3" transform="rotate(180 70.29932403335039 0)" font-family="sans-serif">ORIGIN</text></g><g class="relationship" transform="translate(387.13526806927587 286.7387921028219) rotate(405.1849624490825)"><path class="outline" fill="#A5ABB6" stroke="none" d="M 25 0.5 L 62.42552028761422 0.5 L 62.42552028761422 -0.5 L 25 -0.5 Z M 121.61302028761422 0.5 L 159.03854057522844 0.5 L 159.03854057522844 3.5 L 166.03854057522844 0 L 159.03854057522844 -3.5 L 159.03854057522844 -0.5 L 121.61302028761422 -0.5 Z"/><text text-anchor="middle" pointer-events="none" font-size="8px" fill="#000000" x="92.01927028761422" y="3" font-family="sans-serif">DESTINATION</text></g><g class="relationship" transform="translate(365.5135089706828 381.9369081343248) rotate(264.8868727827579)"><path class="outline" fill="#A5ABB6" stroke="none" d="M 25 0.5 L 97.98026080453009 0.5 L 97.98026080453009 -0.5 L 25 -0.5 Z M 132.42557330453008 0.5 L 205.40583410906018 0.5 L 205.40583410906018 3.5 L 212.40583410906018 0 L 205.40583410906018 -3.5 L 205.40583410906018 -0.5 L 132.42557330453008 -0.5 Z"/><text text-anchor="middle" pointer-events="none" font-size="8px" fill="#000000" x="115.20291705453009" y="3" transform="rotate(180 115.20291705453009 0)" font-family="sans-serif">ORIGIN</text></g><g class="relationship" transform="translate(365.5135089706828 381.9369081343248) rotate(374.4683219771366)"><path class="outline" fill="#A5ABB6" stroke="none" d="M 25 0.5 L 47.600195279505854 0.5 L 47.600195279505854 -0.5 L 25 -0.5 Z M 106.78769527950585 0.5 L 129.3878905590117 0.5 L 129.3878905590117 3.5 L 136.3878905590117 0 L 129.3878905590117 -3.5 L 129.3878905590117 -0.5 L 106.78769527950585 -0.5 Z"/><text text-anchor="middle" pointer-events="none" font-size="8px" fill="#000000" x="77.19394527950585" y="3" font-family="sans-serif">DESTINATION</text></g><g class="relationship" transform="translate(464.029593365936 225.64885139230438) rotate(213.81920710318354)"><path class="outline" fill="#A5ABB6" stroke="none" d="M 25 0.5 L 51.30104569104215 0.5 L 51.30104569104215 -0.5 L 25 -0.5 Z M 85.74635819104215 0.5 L 112.0474038820843 0.5 L 112.0474038820843 3.5 L 119.0474038820843 0 L 112.0474038820843 -3.5 L 112.0474038820843 -0.5 L 85.74635819104215 -0.5 Z"/><text text-anchor="middle" pointer-events="none" font-size="8px" fill="#000000" x="68.52370194104215" y="3" transform="rotate(180 68.52370194104215 0)" font-family="sans-serif">ORIGIN</text></g><g class="relationship" transform="translate(464.029593365936 225.64885139230438) rotate(433.63002044349315)"><path class="outline" fill="#A5ABB6" stroke="none" d="M 25 0.5 L 69.36471630438562 0.5 L 69.36471630438562 -0.5 L 25 -0.5 Z M 128.55221630438564 0.5 L 172.91693260877125 0.5 L 172.91693260877125 3.5 L 179.91693260877125 0 L 172.91693260877125 -3.5 L 172.91693260877125 -0.5 L 128.55221630438564 -0.5 Z"/><text text-anchor="middle" pointer-events="none" font-size="8px" fill="#000000" x="98.95846630438562" y="3" font-family="sans-serif">DESTINATION</text></g><g class="relationship" transform="translate(555.201894786102 259.9949970016349) rotate(208.5081530806985)"><path class="outline" fill="#A5ABB6" stroke="none" d="M 25 0.5 L 99.2470610626858 0.5 L 99.2470610626858 -0.5 L 25 -0.5 Z M 133.69237356268582 0.5 L 207.9394346253716 0.5 L 207.9394346253716 3.5 L 214.9394346253716 0 L 207.9394346253716 -3.5 L 207.9394346253716 -0.5 L 133.69237356268582 -0.5 Z"/><text text-anchor="middle" pointer-events="none" font-size="8px" fill="#000000" x="116.4697173126858" y="3" transform="rotate(180 116.4697173126858 0)" font-family="sans-serif">ORIGIN</text></g><g class="relationship" transform="translate(555.201894786102 259.9949970016349) rotate(461.63753163304403)"><path class="outline" fill="#A5ABB6" stroke="none" d="M 25 0.5 L 49.74096584689126 0.5 L 49.74096584689126 -0.5 L 25 -0.5 Z M 108.92846584689126 0.5 L 133.6694316937825 0.5 L 133.6694316937825 3.5 L 140.6694316937825 0 L 133.6694316937825 -3.5 L 133.6694316937825 -0.5 L 108.92846584689126 -0.5 Z"/><text text-anchor="middle" pointer-events="none" font-size="8px" fill="#000000" x="79.33471584689126" y="3" transform="rotate(180 79.33471584689126 0)" font-family="sans-serif">DESTINATION</text></g><g class="relationship" transform="translate(-96.48424990123965 228.23379055423672) rotate(195.4225484713224)"><path class="outline" fill="#A5ABB6" stroke="none" d="M 25 0.5 L 64.97098639793009 0.5 L 64.97098639793009 -0.5 L 25 -0.5 Z M 99.41629889793009 0.5 L 139.38728529586018 0.5 L 139.38728529586018 3.5 L 146.38728529586018 0 L 139.38728529586018 -3.5 L 139.38728529586018 -0.5 L 99.41629889793009 -0.5 Z"/><text text-anchor="middle" pointer-events="none" font-size="8px" fill="#000000" x="82.19364264793009" y="3" transform="rotate(180 82.19364264793009 0)" font-family="sans-serif">ORIGIN</text></g><g class="relationship" transform="translate(-96.48424990123965 228.23379055423672) rotate(365.00844365819205)"><path class="outline" fill="#A5ABB6" stroke="none" d="M 25 0.5 L 36.46821318392196 0.5 L 36.46821318392196 -0.5 L 25 -0.5 Z M 95.65571318392196 0.5 L 107.12392636784392 0.5 L 107.12392636784392 3.5 L 114.12392636784392 0 L 107.12392636784392 -3.5 L 107.12392636784392 -0.5 L 95.65571318392196 -0.5 Z"/><text text-anchor="middle" pointer-events="none" font-size="8px" fill="#000000" x="66.06196318392196" y="3" font-family="sans-serif">DESTINATION</text></g><g class="relationship" transform="translate(239.45270796899155 58.33567466676357) rotate(497.3094136366566)"><path class="outline" fill="#A5ABB6" stroke="none" d="M 25 0.5 L 113.5203683643675 0.5 L 113.5203683643675 -0.5 L 25 -0.5 Z M 147.9656808643675 0.5 L 236.486049228735 0.5 L 236.486049228735 3.5 L 243.486049228735 0 L 236.486049228735 -3.5 L 236.486049228735 -0.5 L 147.9656808643675 -0.5 Z"/><text text-anchor="middle" pointer-events="none" font-size="8px" fill="#000000" x="130.7430246143675" y="3" transform="rotate(180 130.7430246143675 0)" font-family="sans-serif">ORIGIN</text></g><g class="relationship" transform="translate(239.45270796899155 58.33567466676357) rotate(271.846147274268)"><path class="outline" fill="#A5ABB6" stroke="none" d="M 25 0.5 L 108.89299567087318 0.5 L 108.89299567087318 -0.5 L 25 -0.5 Z M 168.08049567087318 0.5 L 251.97349134174635 0.5 L 251.97349134174635 3.5 L 258.97349134174635 0 L 251.97349134174635 -3.5 L 251.97349134174635 -0.5 L 168.08049567087318 -0.5 Z"/><text text-anchor="middle" pointer-events="none" font-size="8px" fill="#000000" x="138.48674567087318" y="3" font-family="sans-serif">DESTINATION</text></g><g class="relationship" transform="translate(-66.56671668203762 322.6387350203196) rotate(215.654547832552)"><path class="outline" fill="#A5ABB6" stroke="none" d="M 25 0.5 L 99.35255045182697 0.5 L 99.35255045182697 -0.5 L 25 -0.5 Z M 133.79786295182697 0.5 L 208.15041340365394 0.5 L 208.15041340365394 3.5 L 215.15041340365394 0 L 208.15041340365394 -3.5 L 208.15041340365394 -0.5 L 133.79786295182697 -0.5 Z"/><text text-anchor="middle" pointer-events="none" font-size="8px" fill="#000000" x="116.57520670182697" y="3" transform="rotate(180 116.57520670182697 0)" font-family="sans-serif">ORIGIN</text></g><g class="relationship" transform="translate(-66.56671668203762 322.6387350203196) rotate(322.8769775507217)"><path class="outline" fill="#A5ABB6" stroke="none" d="M 25 0.5 L 35.054714765206526 0.5 L 35.054714765206526 -0.5 L 25 -0.5 Z M 94.24221476520653 0.5 L 104.29692953041305 0.5 L 104.29692953041305 3.5 L 111.29692953041305 0 L 104.29692953041305 -3.5 L 104.29692953041305 -0.5 L 94.24221476520653 -0.5 Z"/><text text-anchor="middle" pointer-events="none" font-size="8px" fill="#000000" x="64.64846476520653" y="3" font-family="sans-serif">DESTINATION</text></g><g class="relationship" transform="translate(-133.35416911154036 394.43691844136504) rotate(238.78284915900167)"><path class="outline" fill="#A5ABB6" stroke="none" d="M 25 0.5 L 103.09564700732177 0.5 L 103.09564700732177 -0.5 L 25 -0.5 Z M 137.54095950732176 0.5 L 215.63660651464355 0.5 L 215.63660651464355 3.5 L 222.63660651464355 0 L 215.63660651464355 -3.5 L 215.63660651464355 -0.5 L 137.54095950732176 -0.5 Z"/><text text-anchor="middle" pointer-events="none" font-size="8px" fill="#000000" x="120.31830325732177" y="3" transform="rotate(180 120.31830325732177 0)" font-family="sans-serif">ORIGIN</text></g><g class="relationship" transform="translate(-133.35416911154036 394.43691844136504) rotate(318.7166739388109)"><path class="outline" fill="#A5ABB6" stroke="none" d="M 25 0.5 L 83.65467466401228 0.5 L 83.65467466401228 -0.5 L 25 -0.5 Z M 142.84217466401228 0.5 L 201.49684932802455 0.5 L 201.49684932802455 3.5 L 208.49684932802455 0 L 201.49684932802455 -3.5 L 201.49684932802455 -0.5 L 142.84217466401228 -0.5 Z"/><text text-anchor="middle" pointer-events="none" font-size="8px" fill="#000000" x="113.24842466401228" y="3" font-family="sans-serif">DESTINATION</text></g><g class="relationship" transform="translate(-162.214004060694 301.5413910032054) rotate(230.07667738919497)"><path class="outline" fill="#A5ABB6" stroke="none" d="M 25 0.5 L 56.78741585119484 0.5 L 56.78741585119484 -0.5 L 25 -0.5 Z M 91.23272835119484 0.5 L 123.02014420238967 0.5 L 123.02014420238967 3.5 L 130.02014420238967 0 L 123.02014420238967 -3.5 L 123.02014420238967 -0.5 L 91.23272835119484 -0.5 Z"/><text text-anchor="middle" pointer-events="none" font-size="8px" fill="#000000" x="74.01007210119484" y="3" transform="rotate(180 74.01007210119484 0)" font-family="sans-serif">ORIGIN</text></g><g class="relationship" transform="translate(-162.214004060694 301.5413910032054) rotate(343.33549749116423)"><path class="outline" fill="#A5ABB6" stroke="none" d="M 25 0.5 L 73.54633875005516 0.5 L 73.54633875005516 -0.5 L 25 -0.5 Z M 132.73383875005516 0.5 L 181.2801775001103 0.5 L 181.2801775001103 3.5 L 188.2801775001103 0 L 181.2801775001103 -3.5 L 181.2801775001103 -0.5 L 132.73383875005516 -0.5 Z"/><text text-anchor="middle" pointer-events="none" font-size="8px" fill="#000000" x="103.14008875005516" y="3" font-family="sans-serif">DESTINATION</text></g><g class="relationship" transform="translate(5.07959982863988 -110.20739735337445) rotate(492.33151303818374)"><path class="outline" fill="#A5ABB6" stroke="none" d="M 25 0.5 L 164.98466409637996 0.5 L 164.98466409637996 -0.5 L 25 -0.5 Z M 224.17216409637996 0.5 L 364.1568281927599 0.5 L 364.1568281927599 3.5 L 371.1568281927599 0 L 364.1568281927599 -3.5 L 364.1568281927599 -0.5 L 224.17216409637996 -0.5 Z"/><text text-anchor="middle" pointer-events="none" font-size="8px" fill="#000000" x="194.57841409637996" y="3" transform="rotate(180 194.57841409637996 0)" font-family="sans-serif">DESTINATION</text></g><g class="relationship" transform="translate(5.07959982863988 -110.20739735337445) rotate(298.8256750371595)"><path class="outline" fill="#A5ABB6" stroke="none" d="M 25 0.5 L 167.84688160347005 0.5 L 167.84688160347005 -0.5 L 25 -0.5 Z M 202.29219410347005 0.5 L 345.1390757069401 0.5 L 345.1390757069401 3.5 L 352.1390757069401 0 L 345.1390757069401 -3.5 L 345.1390757069401 -0.5 L 202.29219410347005 -0.5 Z"/><text text-anchor="middle" pointer-events="none" font-size="8px" fill="#000000" x="185.06953785347005" y="3" font-family="sans-serif">ORIGIN</text></g><g class="relationship" transform="translate(325.4272534080092 -316.93433465662423) rotate(221.762641733703)"><path class="outline" fill="#A5ABB6" stroke="none" d="M 25 0.5 L 72.12457625097566 0.5 L 72.12457625097566 -0.5 L 25 -0.5 Z M 106.56988875097566 0.5 L 153.69446500195133 0.5 L 153.69446500195133 3.5 L 160.69446500195133 0 L 153.69446500195133 -3.5 L 153.69446500195133 -0.5 L 106.56988875097566 -0.5 Z"/><text text-anchor="middle" pointer-events="none" font-size="8px" fill="#000000" x="89.34723250097566" y="3" transform="rotate(180 89.34723250097566 0)" font-family="sans-serif">ORIGIN</text></g><g class="relationship" transform="translate(325.4272534080092 -316.93433465662423) rotate(490.03511859936725)"><path class="outline" fill="#A5ABB6" stroke="none" d="M 25 0.5 L 26.622752817069617 0.5 L 26.622752817069617 -0.5 L 25 -0.5 Z M 85.81025281706962 0.5 L 87.43300563413923 0.5 L 87.43300563413923 3.5 L 94.43300563413923 0 L 87.43300563413923 -3.5 L 87.43300563413923 -0.5 L 85.81025281706962 -0.5 Z"/><text text-anchor="middle" pointer-events="none" font-size="8px" fill="#000000" x="56.21650281706962" y="3" transform="rotate(180 56.21650281706962 0)" font-family="sans-serif">DESTINATION</text></g><g class="relationship" transform="translate(421.2664263665043 -308.0428800546567) rotate(209.49691837192063)"><path class="outline" fill="#A5ABB6" stroke="none" d="M 25 0.5 L 113.90246475948643 0.5 L 113.90246475948643 -0.5 L 25 -0.5 Z M 148.34777725948643 0.5 L 237.25024201897287 0.5 L 237.25024201897287 3.5 L 244.25024201897287 0 L 237.25024201897287 -3.5 L 237.25024201897287 -0.5 L 148.34777725948643 -0.5 Z"/><text text-anchor="middle" pointer-events="none" font-size="8px" fill="#000000" x="131.12512100948643" y="3" transform="rotate(180 131.12512100948643 0)" font-family="sans-serif">ORIGIN</text></g><g class="relationship" transform="translate(421.2664263665043 -308.0428800546567) rotate(514.4472160498339)"><path class="outline" fill="#A5ABB6" stroke="none" d="M 25 0.5 L 62.598742592188756 0.5 L 62.598742592188756 -0.5 L 25 -0.5 Z M 121.78624259218876 0.5 L 159.3849851843775 0.5 L 159.3849851843775 3.5 L 166.3849851843775 0 L 159.3849851843775 -3.5 L 159.3849851843775 -0.5 L 121.78624259218876 -0.5 Z"/><text text-anchor="middle" pointer-events="none" font-size="8px" fill="#000000" x="92.19249259218876" y="3" transform="rotate(180 92.19249259218876 0)" font-family="sans-serif">DESTINATION</text></g><g class="relationship" transform="translate(285.23303115793425 -406.0296289341142) rotate(199.38073765093873)"><path class="outline" fill="#A5ABB6" stroke="none" d="M 25 0.5 L 26.943578520733148 0.5 L 26.943578520733148 -0.5 L 25 -0.5 Z M 70.27951602073315 0.5 L 72.2230945414663 0.5 L 72.2230945414663 3.5 L 79.2230945414663 0 L 72.2230945414663 -3.5 L 72.2230945414663 -0.5 L 70.27951602073315 -0.5 Z"/><text text-anchor="middle" pointer-events="none" font-size="8px" fill="#000000" x="48.61154727073315" y="3" transform="rotate(180 48.61154727073315 0)" font-family="sans-serif">DESTIN…</text></g><g class="relationship" transform="translate(285.23303115793425 -406.0296289341142) rotate(461.46975987170754)"><path class="outline" fill="#A5ABB6" stroke="none" d="M 25 0.5 L 71.38638660729505 0.5 L 71.38638660729505 -0.5 L 25 -0.5 Z M 105.83169910729505 0.5 L 152.2180857145901 0.5 L 152.2180857145901 3.5 L 159.2180857145901 0 L 152.2180857145901 -3.5 L 152.2180857145901 -0.5 L 105.83169910729505 -0.5 Z"/><text text-anchor="middle" pointer-events="none" font-size="8px" fill="#000000" x="88.60904285729505" y="3" transform="rotate(180 88.60904285729505 0)" font-family="sans-serif">ORIGIN</text></g><g class="relationship" transform="translate(382.6195591435888 -396.8568295588781) rotate(192.60380302101277)"><path class="outline" fill="#A5ABB6" stroke="none" d="M 25 0.5 L 67.17435530177227 0.5 L 67.17435530177227 -0.5 L 25 -0.5 Z M 126.36185530177227 0.5 L 168.53621060354453 0.5 L 168.53621060354453 3.5 L 175.53621060354453 0 L 168.53621060354453 -3.5 L 168.53621060354453 -0.5 L 126.36185530177227 -0.5 Z"/><text text-anchor="middle" pointer-events="none" font-size="8px" fill="#000000" x="96.76810530177227" y="3" transform="rotate(180 96.76810530177227 0)" font-family="sans-serif">DESTINATION</text></g><g class="relationship" transform="translate(382.6195591435888 -396.8568295588781) rotate(488.02745946633945)"><path class="outline" fill="#A5ABB6" stroke="none" d="M 25 0.5 L 88.05163514741245 0.5 L 88.05163514741245 -0.5 L 25 -0.5 Z M 122.49694764741245 0.5 L 185.5485827948249 0.5 L 185.5485827948249 3.5 L 192.5485827948249 0 L 185.5485827948249 -3.5 L 185.5485827948249 -0.5 L 122.49694764741245 -0.5 Z"/><text text-anchor="middle" pointer-events="none" font-size="8px" fill="#000000" x="105.27429139741245" y="3" transform="rotate(180 105.27429139741245 0)" font-family="sans-serif">ORIGIN</text></g><g class="relationship" transform="translate(340.9553325513676 -485.4998133368975) rotate(523.7548170263635)"><path class="outline" fill="#A5ABB6" stroke="none" d="M 25 0.5 L 47.12903418337791 0.5 L 47.12903418337791 -0.5 L 25 -0.5 Z M 106.31653418337791 0.5 L 128.44556836675582 0.5 L 128.44556836675582 3.5 L 135.44556836675582 0 L 128.44556836675582 -3.5 L 128.44556836675582 -0.5 L 106.31653418337791 -0.5 Z"/><text text-anchor="middle" pointer-events="none" font-size="8px" fill="#000000" x="76.72278418337791" y="3" transform="rotate(180 76.72278418337791 0)" font-family="sans-serif">DESTINATION</text></g><g class="relationship" transform="translate(340.9553325513676 -485.4998133368975) rotate(469.55481550844047)"><path class="outline" fill="#A5ABB6" stroke="none" d="M 25 0.5 L 117.23946214737757 0.5 L 117.23946214737757 -0.5 L 25 -0.5 Z M 151.68477464737757 0.5 L 243.92423679475513 0.5 L 243.92423679475513 3.5 L 250.92423679475513 0 L 243.92423679475513 -3.5 L 243.92423679475513 -0.5 L 151.68477464737757 -0.5 Z"/><text text-anchor="middle" pointer-events="none" font-size="8px" fill="#000000" x="134.46211839737757" y="3" transform="rotate(180 134.46211839737757 0)" font-family="sans-serif">ORIGIN</text></g><g class="relationship" transform="translate(228.6698514363656 -327.6059589083788) rotate(249.72205140164652)"><path class="outline" fill="#A5ABB6" stroke="none" d="M 25 0.5 L 27.144406795847445 0.5 L 27.144406795847445 -0.5 L 25 -0.5 Z M 86.33190679584744 0.5 L 88.47631359169489 0.5 L 88.47631359169489 3.5 L 95.47631359169489 0 L 88.47631359169489 -3.5 L 88.47631359169489 -0.5 L 86.33190679584744 -0.5 Z"/><text text-anchor="middle" pointer-events="none" font-size="8px" fill="#000000" x="56.738156795847445" y="3" transform="rotate(180 56.738156795847445 0)" font-family="sans-serif">DESTINATION</text></g><g class="relationship" transform="translate(228.6698514363656 -327.6059589083788) rotate(438.95565558222023)"><path class="outline" fill="#A5ABB6" stroke="none" d="M 25 0.5 L 31.29858937395334 0.5 L 31.29858937395334 -0.5 L 25 -0.5 Z M 65.74390187395335 0.5 L 72.04249124790668 0.5 L 72.04249124790668 3.5 L 79.04249124790668 0 L 72.04249124790668 -3.5 L 72.04249124790668 -0.5 L 65.74390187395335 -0.5 Z"/><text text-anchor="middle" pointer-events="none" font-size="8px" fill="#000000" x="48.52124562395334" y="3" font-family="sans-serif">ORIGIN</text></g><g class="relationship" transform="translate(-163.77813509030074 3.013725279492583) rotate(478.59454959235353)"><path class="outline" fill="#A5ABB6" stroke="none" d="M 25 0.5 L 69.20480758641752 0.5 L 69.20480758641752 -0.5 L 25 -0.5 Z M 128.39230758641753 0.5 L 172.59711517283503 0.5 L 172.59711517283503 3.5 L 179.59711517283503 0 L 172.59711517283503 -3.5 L 172.59711517283503 -0.5 L 128.39230758641753 -0.5 Z"/><text text-anchor="middle" pointer-events="none" font-size="8px" fill="#000000" x="98.79855758641752" y="3" transform="rotate(180 98.79855758641752 0)" font-family="sans-serif">DESTINATION</text></g><g class="relationship" transform="translate(-163.77813509030074 3.013725279492583) rotate(281.26196625548)"><path class="outline" fill="#A5ABB6" stroke="none" d="M 25 0.5 L 108.27598589395126 0.5 L 108.27598589395126 -0.5 L 25 -0.5 Z M 142.72129839395126 0.5 L 225.99728428790252 0.5 L 225.99728428790252 3.5 L 232.99728428790252 0 L 225.99728428790252 -3.5 L 225.99728428790252 -0.5 L 142.72129839395126 -0.5 Z"/><text text-anchor="middle" pointer-events="none" font-size="8px" fill="#000000" x="125.49864214395126" y="3" font-family="sans-serif">ORIGIN</text></g><g class="relationship" transform="translate(175.91215878977894 -18.28254227823454) rotate(218.69474090073385)"><path class="outline" fill="#A5ABB6" stroke="none" d="M 25 0.5 L 152.24205942956686 0.5 L 152.24205942956686 -0.5 L 25 -0.5 Z M 211.42955942956686 0.5 L 338.67161885913373 0.5 L 338.67161885913373 3.5 L 345.67161885913373 0 L 338.67161885913373 -3.5 L 338.67161885913373 -0.5 L 211.42955942956686 -0.5 Z"/><text text-anchor="middle" pointer-events="none" font-size="8px" fill="#000000" x="181.83580942956686" y="3" transform="rotate(180 181.83580942956686 0)" font-family="sans-serif">DESTINATION</text></g><g class="relationship" transform="translate(175.91215878977894 -18.28254227823454) rotate(404.1920492597586)"><path class="outline" fill="#A5ABB6" stroke="none" d="M 25 0.5 L 96.73998202812614 0.5 L 96.73998202812614 -0.5 L 25 -0.5 Z M 131.18529452812612 0.5 L 202.92527655625227 0.5 L 202.92527655625227 3.5 L 209.92527655625227 0 L 202.92527655625227 -3.5 L 202.92527655625227 -0.5 L 131.18529452812612 -0.5 Z"/><text text-anchor="middle" pointer-events="none" font-size="8px" fill="#000000" x="113.96263827812614" y="3" font-family="sans-serif">ORIGIN</text></g><g class="relationship" transform="translate(94.94249668917959 33.95427161793533) rotate(233.7343070050274)"><path class="outline" fill="#A5ABB6" stroke="none" d="M 25 0.5 L 143.00453204586466 0.5 L 143.00453204586466 -0.5 L 25 -0.5 Z M 202.19203204586466 0.5 L 320.19656409172933 0.5 L 320.19656409172933 3.5 L 327.19656409172933 0 L 320.19656409172933 -3.5 L 320.19656409172933 -0.5 L 202.19203204586466 -0.5 Z"/><text text-anchor="middle" pointer-events="none" font-size="8px" fill="#000000" x="172.59828204586466" y="3" transform="rotate(180 172.59828204586466 0)" font-family="sans-serif">DESTINATION</text></g><g class="relationship" transform="translate(94.94249668917959 33.95427161793533) rotate(384.09115121679764)"><path class="outline" fill="#A5ABB6" stroke="none" d="M 25 0.5 L 115.88243068395929 0.5 L 115.88243068395929 -0.5 L 25 -0.5 Z M 150.32774318395929 0.5 L 241.21017386791857 0.5 L 241.21017386791857 3.5 L 248.21017386791857 0 L 241.21017386791857 -3.5 L 241.21017386791857 -0.5 L 150.32774318395929 -0.5 Z"/><text text-anchor="middle" pointer-events="none" font-size="8px" fill="#000000" x="133.10508693395929" y="3" font-family="sans-serif">ORIGIN</text></g><g class="relationship" transform="translate(176.72128032139344 -114.32897875577159) rotate(205.06557220142292)"><path class="outline" fill="#A5ABB6" stroke="none" d="M 25 0.5 L 127.04439324862619 0.5 L 127.04439324862619 -0.5 L 25 -0.5 Z M 186.2318932486262 0.5 L 288.2762864972524 0.5 L 288.2762864972524 3.5 L 295.2762864972524 0 L 288.2762864972524 -3.5 L 288.2762864972524 -0.5 L 186.2318932486262 -0.5 Z"/><text text-anchor="middle" pointer-events="none" font-size="8px" fill="#000000" x="156.6381432486262" y="3" transform="rotate(180 156.6381432486262 0)" font-family="sans-serif">DESTINATION</text></g><g class="relationship" transform="translate(176.72128032139344 -114.32897875577159) rotate(417.1686479713992)"><path class="outline" fill="#A5ABB6" stroke="none" d="M 25 0.5 L 133.8733371397759 0.5 L 133.8733371397759 -0.5 L 25 -0.5 Z M 168.3186496397759 0.5 L 277.1919867795518 0.5 L 277.1919867795518 3.5 L 284.1919867795518 0 L 277.1919867795518 -3.5 L 277.1919867795518 -0.5 L 168.3186496397759 -0.5 Z"/><text text-anchor="middle" pointer-events="none" font-size="8px" fill="#000000" x="151.0959933897759" y="3" font-family="sans-serif">ORIGIN</text></g><g class="relationship" transform="translate(-257.34292089526554 -21.713612034800533) rotate(451.2213448794262)"><path class="outline" fill="#A5ABB6" stroke="none" d="M 25 0.5 L 69.1141889627265 0.5 L 69.1141889627265 -0.5 L 25 -0.5 Z M 128.3016889627265 0.5 L 172.415877925453 0.5 L 172.415877925453 3.5 L 179.415877925453 0 L 172.415877925453 -3.5 L 172.415877925453 -0.5 L 128.3016889627265 -0.5 Z"/><text text-anchor="middle" pointer-events="none" font-size="8px" fill="#000000" x="98.7079389627265" y="3" transform="rotate(180 98.7079389627265 0)" font-family="sans-serif">DESTINATION</text></g><g class="relationship" transform="translate(-257.34292089526554 -21.713612034800533) rotate(302.23249824885727)"><path class="outline" fill="#A5ABB6" stroke="none" d="M 25 0.5 L 114.2250750979245 0.5 L 114.2250750979245 -0.5 L 25 -0.5 Z M 148.6703875979245 0.5 L 237.895462695849 0.5 L 237.895462695849 3.5 L 244.895462695849 0 L 237.895462695849 -3.5 L 237.895462695849 -0.5 L 148.6703875979245 -0.5 Z"/><text text-anchor="middle" pointer-events="none" font-size="8px" fill="#000000" x="131.4477313479245" y="3" font-family="sans-serif">ORIGIN</text></g><g class="relationship" transform="translate(-79.53837013265455 -58.06191961542025) rotate(460.02793612094865)"><path class="outline" fill="#A5ABB6" stroke="none" d="M 25 0.5 L 62.6635095698864 0.5 L 62.6635095698864 -0.5 L 25 -0.5 Z M 121.8510095698864 0.5 L 159.5145191397728 0.5 L 159.5145191397728 3.5 L 166.5145191397728 0 L 159.5145191397728 -3.5 L 159.5145191397728 -0.5 L 121.8510095698864 -0.5 Z"/><text text-anchor="middle" pointer-events="none" font-size="8px" fill="#000000" x="92.2572595698864" y="3" transform="rotate(180 92.2572595698864 0)" font-family="sans-serif">DESTINATION</text></g><g class="relationship" transform="translate(-79.53837013265455 -58.06191961542025) rotate(259.99782439640217)"><path class="outline" fill="#A5ABB6" stroke="none" d="M 25 0.5 L 76.73548273079032 0.5 L 76.73548273079032 -0.5 L 25 -0.5 Z M 111.18079523079032 0.5 L 162.91627796158065 0.5 L 162.91627796158065 3.5 L 169.91627796158065 0 L 162.91627796158065 -3.5 L 162.91627796158065 -0.5 L 111.18079523079032 -0.5 Z"/><text text-anchor="middle" pointer-events="none" font-size="8px" fill="#000000" x="93.95813898079032" y="3" transform="rotate(180 93.95813898079032 0)" font-family="sans-serif">ORIGIN</text></g><g class="relationship" transform="translate(-169.2521085191683 -94.63414211945253) rotate(435.9457014195474)"><path class="outline" fill="#A5ABB6" stroke="none" d="M 25 0.5 L 82.96070550429064 0.5 L 82.96070550429064 -0.5 L 25 -0.5 Z M 142.14820550429064 0.5 L 200.1089110085813 0.5 L 200.1089110085813 3.5 L 207.1089110085813 0 L 200.1089110085813 -3.5 L 200.1089110085813 -0.5 L 142.14820550429064 -0.5 Z"/><text text-anchor="middle" pointer-events="none" font-size="8px" fill="#000000" x="112.55445550429064" y="3" font-family="sans-serif">DESTINATION</text></g><g class="relationship" transform="translate(-169.2521085191683 -94.63414211945253) rotate(289.7734865742693)"><path class="outline" fill="#A5ABB6" stroke="none" d="M 25 0.5 L 61.83599173378094 0.5 L 61.83599173378094 -0.5 L 25 -0.5 Z M 96.28130423378094 0.5 L 133.1172959675619 0.5 L 133.1172959675619 3.5 L 140.1172959675619 0 L 133.1172959675619 -3.5 L 133.1172959675619 -0.5 L 96.28130423378094 -0.5 Z"/><text text-anchor="middle" pointer-events="none" font-size="8px" fill="#000000" x="79.05864798378094" y="3" font-family="sans-serif">ORIGIN</text></g><g class="relationship" transform="translate(-73.72308940948619 40.58515215945423) rotate(419.89683595530903)"><path class="outline" fill="#A5ABB6" stroke="none" d="M 25 0.5 L 82.37789087965125 0.5 L 82.37789087965125 -0.5 L 25 -0.5 Z M 141.56539087965126 0.5 L 198.9432817593025 0.5 L 198.9432817593025 3.5 L 205.9432817593025 0 L 198.9432817593025 -3.5 L 198.9432817593025 -0.5 L 141.56539087965126 -0.5 Z"/><text text-anchor="middle" pointer-events="none" font-size="8px" fill="#000000" x="111.97164087965125" y="3" font-family="sans-serif">DESTINATION</text></g><g class="relationship" transform="translate(-73.72308940948619 40.58515215945423) rotate(262.2266971820806)"><path class="outline" fill="#A5ABB6" stroke="none" d="M 25 0.5 L 125.9253204673283 0.5 L 125.9253204673283 -0.5 L 25 -0.5 Z M 160.3706329673283 0.5 L 261.2959534346566 0.5 L 261.2959534346566 3.5 L 268.2959534346566 0 L 261.2959534346566 -3.5 L 261.2959534346566 -0.5 L 160.3706329673283 -0.5 Z"/><text text-anchor="middle" pointer-events="none" font-size="8px" fill="#000000" x="143.1479767173283" y="3" transform="rotate(180 143.1479767173283 0)" font-family="sans-serif">ORIGIN</text></g><g class="relationship" transform="translate(8.633578657815308 -12.403469873966017) rotate(442.4564763019937)"><path class="outline" fill="#A5ABB6" stroke="none" d="M 25 0.5 L 94.40123210681448 0.5 L 94.40123210681448 -0.5 L 25 -0.5 Z M 153.58873210681446 0.5 L 222.98996421362895 0.5 L 222.98996421362895 3.5 L 229.98996421362895 0 L 222.98996421362895 -3.5 L 222.98996421362895 -0.5 L 153.58873210681446 -0.5 Z"/><text text-anchor="middle" pointer-events="none" font-size="8px" fill="#000000" x="123.99498210681448" y="3" font-family="sans-serif">DESTINATION</text></g><g class="relationship" transform="translate(8.633578657815308 -12.403469873966017) rotate(242.8171706652322)"><path class="outline" fill="#A5ABB6" stroke="none" d="M 25 0.5 L 112.83438926441517 0.5 L 112.83438926441517 -0.5 L 25 -0.5 Z M 147.27970176441517 0.5 L 235.11409102883033 0.5 L 235.11409102883033 3.5 L 242.11409102883033 0 L 235.11409102883033 -3.5 L 235.11409102883033 -0.5 L 147.27970176441517 -0.5 Z"/><text text-anchor="middle" pointer-events="none" font-size="8px" fill="#000000" x="130.05704551441517" y="3" transform="rotate(180 130.05704551441517 0)" font-family="sans-serif">ORIGIN</text></g><g class="relationship" transform="translate(-34.95119359518685 -386.4560110095492) rotate(346.28194350450394)"><path class="outline" fill="#A5ABB6" stroke="none" d="M 25 0.5 L 93.46820656696342 0.5 L 93.46820656696342 -0.5 L 25 -0.5 Z M 127.91351906696342 0.5 L 196.38172563392683 0.5 L 196.38172563392683 3.5 L 203.38172563392683 0 L 196.38172563392683 -3.5 L 196.38172563392683 -0.5 L 127.91351906696342 -0.5 Z"/><text text-anchor="middle" pointer-events="none" font-size="8px" fill="#000000" x="110.69086281696342" y="3" font-family="sans-serif">ORIGIN</text></g><g class="relationship" transform="translate(-34.95119359518685 -386.4560110095492) rotate(479.89515899787443)"><path class="outline" fill="#A5ABB6" stroke="none" d="M 25 0.5 L 45.597101640124166 0.5 L 45.597101640124166 -0.5 L 25 -0.5 Z M 104.78460164012417 0.5 L 125.38170328024833 0.5 L 125.38170328024833 3.5 L 132.38170328024833 0 L 125.38170328024833 -3.5 L 125.38170328024833 -0.5 L 104.78460164012417 -0.5 Z"/><text text-anchor="middle" pointer-events="none" font-size="8px" fill="#000000" x="75.19085164012417" y="3" transform="rotate(180 75.19085164012417 0)" font-family="sans-serif">DESTINATION</text></g><g class="relationship" transform="translate(-12.604965373625332 -481.236750794043) rotate(371.5078176315624)"><path class="outline" fill="#A5ABB6" stroke="none" d="M 25 0.5 L 68.71321485291418 0.5 L 68.71321485291418 -0.5 L 25 -0.5 Z M 127.90071485291418 0.5 L 171.61392970582835 0.5 L 171.61392970582835 3.5 L 178.61392970582835 0 L 171.61392970582835 -3.5 L 171.61392970582835 -0.5 L 127.90071485291418 -0.5 Z"/><text text-anchor="middle" pointer-events="none" font-size="8px" fill="#000000" x="98.30696485291418" y="3" font-family="sans-serif">DESTINATION</text></g><g class="relationship" transform="translate(-12.604965373625332 -481.236750794043) rotate(473.55203151463695)"><path class="outline" fill="#A5ABB6" stroke="none" d="M 25 0.5 L 105.39366547625283 0.5 L 105.39366547625283 -0.5 L 25 -0.5 Z M 139.83897797625283 0.5 L 220.23264345250567 0.5 L 220.23264345250567 3.5 L 227.23264345250567 0 L 220.23264345250567 -3.5 L 220.23264345250567 -0.5 L 139.83897797625283 -0.5 Z"/><text text-anchor="middle" pointer-events="none" font-size="8px" fill="#000000" x="122.61632172625283" y="3" transform="rotate(180 122.61632172625283 0)" font-family="sans-serif">ORIGIN</text></g><g class="relationship" transform="translate(-416.79488358210426 -28.89489587337117) rotate(413.7536185183479)"><path class="outline" fill="#A5ABB6" stroke="none" d="M 25 0.5 L 110.43385742269999 0.5 L 110.43385742269999 -0.5 L 25 -0.5 Z M 144.8791699227 0.5 L 230.31302734539997 0.5 L 230.31302734539997 3.5 L 237.31302734539997 0 L 230.31302734539997 -3.5 L 230.31302734539997 -0.5 L 144.8791699227 -0.5 Z"/><text text-anchor="middle" pointer-events="none" font-size="8px" fill="#000000" x="127.65651367269999" y="3" font-family="sans-serif">ORIGIN</text></g><g class="relationship" transform="translate(-416.79488358210426 -28.89489587337117) rotate(260.8960378248338)"><path class="outline" fill="#A5ABB6" stroke="none" d="M 25 0.5 L 104.26639978986057 0.5 L 104.26639978986057 -0.5 L 25 -0.5 Z M 163.45389978986057 0.5 L 242.72029957972114 0.5 L 242.72029957972114 3.5 L 249.72029957972114 0 L 242.72029957972114 -3.5 L 242.72029957972114 -0.5 L 163.45389978986057 -0.5 Z"/><text text-anchor="middle" pointer-events="none" font-size="8px" fill="#000000" x="133.86014978986057" y="3" transform="rotate(180 133.86014978986057 0)" font-family="sans-serif">DESTINATION</text></g><g class="relationship" transform="translate(-230.85364075242757 -387.789530560883) rotate(519.0929913742111)"><path class="outline" fill="#A5ABB6" stroke="none" d="M 25 0.5 L 102.06628203289785 0.5 L 102.06628203289785 -0.5 L 25 -0.5 Z M 136.51159453289785 0.5 L 213.5778765657957 0.5 L 213.5778765657957 3.5 L 220.5778765657957 0 L 213.5778765657957 -3.5 L 213.5778765657957 -0.5 L 136.51159453289785 -0.5 Z"/><text text-anchor="middle" pointer-events="none" font-size="8px" fill="#000000" x="119.28893828289785" y="3" transform="rotate(180 119.28893828289785 0)" font-family="sans-serif">ORIGIN</text></g><g class="relationship" transform="translate(-230.85364075242757 -387.789530560883) rotate(409.5502571185853)"><path class="outline" fill="#A5ABB6" stroke="none" d="M 25 0.5 L 57.43075699329317 0.5 L 57.43075699329317 -0.5 L 25 -0.5 Z M 116.61825699329317 0.5 L 149.04901398658635 0.5 L 149.04901398658635 3.5 L 156.04901398658635 0 L 149.04901398658635 -3.5 L 149.04901398658635 -0.5 L 116.61825699329317 -0.5 Z"/><text text-anchor="middle" pointer-events="none" font-size="8px" fill="#000000" x="87.02450699329317" y="3" font-family="sans-serif">DESTINATION</text></g><g class="relationship" transform="translate(-294.726579054561 -313.10456644610707) rotate(535.5268081955323)"><path class="outline" fill="#A5ABB6" stroke="none" d="M 25 0.5 L 49.92728480634432 0.5 L 49.92728480634432 -0.5 L 25 -0.5 Z M 109.11478480634432 0.5 L 134.04206961268864 0.5 L 134.04206961268864 3.5 L 141.04206961268864 0 L 134.04206961268864 -3.5 L 134.04206961268864 -0.5 L 109.11478480634432 -0.5 Z"/><text text-anchor="middle" pointer-events="none" font-size="8px" fill="#000000" x="79.52103480634432" y="3" transform="rotate(180 79.52103480634432 0)" font-family="sans-serif">DESTINATION</text></g><g class="relationship" transform="translate(-294.726579054561 -313.10456644610707) rotate(379.1835608016829)"><path class="outline" fill="#A5ABB6" stroke="none" d="M 25 0.5 L 75.27506276269628 0.5 L 75.27506276269628 -0.5 L 25 -0.5 Z M 109.72037526269628 0.5 L 159.99543802539256 0.5 L 159.99543802539256 3.5 L 166.99543802539256 0 L 159.99543802539256 -3.5 L 159.99543802539256 -0.5 L 109.72037526269628 -0.5 Z"/><text text-anchor="middle" pointer-events="none" font-size="8px" fill="#000000" x="92.49771901269628" y="3" font-family="sans-serif">ORIGIN</text></g><g class="relationship" transform="translate(-326.99839903854996 -405.0331356538217) rotate(501.7973907007995)"><path class="outline" fill="#A5ABB6" stroke="none" d="M 25 0.5 L 51.69856521883722 0.5 L 51.69856521883722 -0.5 L 25 -0.5 Z M 110.88606521883722 0.5 L 137.58463043767443 0.5 L 137.58463043767443 3.5 L 144.58463043767443 0 L 137.58463043767443 -3.5 L 137.58463043767443 -0.5 L 110.88606521883722 -0.5 Z"/><text text-anchor="middle" pointer-events="none" font-size="8px" fill="#000000" x="81.29231521883722" y="3" transform="rotate(180 81.29231521883722 0)" font-family="sans-serif">DESTINATION</text></g><g class="relationship" transform="translate(-326.99839903854996 -405.0331356538217) rotate(395.96903333864884)"><path class="outline" fill="#A5ABB6" stroke="none" d="M 25 0.5 L 111.24124045280342 0.5 L 111.24124045280342 -0.5 L 25 -0.5 Z M 145.68655295280342 0.5 L 231.92779340560685 0.5 L 231.92779340560685 3.5 L 238.92779340560685 0 L 231.92779340560685 -3.5 L 231.92779340560685 -0.5 L 145.68655295280342 -0.5 Z"/><text text-anchor="middle" pointer-events="none" font-size="8px" fill="#000000" x="128.46389670280342" y="3" font-family="sans-serif">ORIGIN</text></g><g class="relationship" transform="translate(111.56113768386558 -255.19167868865452) rotate(538.6819078464212)"><path class="outline" fill="#A5ABB6" stroke="none" d="M 25 0.5 L 79.41284627997383 0.5 L 79.41284627997383 -0.5 L 25 -0.5 Z M 138.60034627997385 0.5 L 193.01319255994767 0.5 L 193.01319255994767 3.5 L 200.01319255994767 0 L 193.01319255994767 -3.5 L 193.01319255994767 -0.5 L 138.60034627997385 -0.5 Z"/><text text-anchor="middle" pointer-events="none" font-size="8px" fill="#000000" x="109.00659627997383" y="3" transform="rotate(180 109.00659627997383 0)" font-family="sans-serif">DESTINATION</text></g><g class="relationship" transform="translate(111.56113768386558 -255.19167868865452) rotate(372.2288217702386)"><path class="outline" fill="#A5ABB6" stroke="none" d="M 25 0.5 L 49.38819427023678 0.5 L 49.38819427023678 -0.5 L 25 -0.5 Z M 83.83350677023678 0.5 L 108.22170104047356 0.5 L 108.22170104047356 3.5 L 115.22170104047356 0 L 108.22170104047356 -3.5 L 108.22170104047356 -0.5 L 83.83350677023678 -0.5 Z"/><text text-anchor="middle" pointer-events="none" font-size="8px" fill="#000000" x="66.61085052023678" y="3" font-family="sans-serif">ORIGIN</text></g><g class="relationship" transform="translate(89.85352563297587 -159.80826227947873) rotate(203.93325928147715)"><path class="outline" fill="#A5ABB6" stroke="none" d="M 25 0.5 L 78.0889085913786 0.5 L 78.0889085913786 -0.5 L 25 -0.5 Z M 137.27640859137858 0.5 L 190.3653171827572 0.5 L 190.3653171827572 3.5 L 197.3653171827572 0 L 190.3653171827572 -3.5 L 190.3653171827572 -0.5 L 137.27640859137858 -0.5 Z"/><text text-anchor="middle" pointer-events="none" font-size="8px" fill="#000000" x="107.6826585913786" y="3" transform="rotate(180 107.6826585913786 0)" font-family="sans-serif">DESTINATION</text></g><g class="relationship" transform="translate(89.85352563297587 -159.80826227947873) rotate(337.52257206226193)"><path class="outline" fill="#A5ABB6" stroke="none" d="M 25 0.5 L 65.17691945626858 0.5 L 65.17691945626858 -0.5 L 25 -0.5 Z M 99.62223195626858 0.5 L 139.79915141253716 0.5 L 139.79915141253716 3.5 L 146.79915141253716 0 L 139.79915141253716 -3.5 L 139.79915141253716 -0.5 L 99.62223195626858 -0.5 Z"/><text text-anchor="middle" pointer-events="none" font-size="8px" fill="#000000" x="82.39957570626858" y="3" font-family="sans-serif">ORIGIN</text></g><g class="relationship" transform="translate(132.01364145941676 -349.1469251214251) rotate(518.003872646241)"><path class="outline" fill="#A5ABB6" stroke="none" d="M 25 0.5 L 99.2421695445147 0.5 L 99.2421695445147 -0.5 L 25 -0.5 Z M 158.4296695445147 0.5 L 232.6718390890294 0.5 L 232.6718390890294 3.5 L 239.6718390890294 0 L 232.6718390890294 -3.5 L 232.6718390890294 -0.5 L 158.4296695445147 -0.5 Z"/><text text-anchor="middle" pointer-events="none" font-size="8px" fill="#000000" x="128.8359195445147" y="3" transform="rotate(180 128.8359195445147 0)" font-family="sans-serif">DESTINATION</text></g><g class="relationship" transform="translate(132.01364145941676 -349.1469251214251) rotate(406.6854030696141)"><path class="outline" fill="#A5ABB6" stroke="none" d="M 25 0.5 L 64.25318651334057 0.5 L 64.25318651334057 -0.5 L 25 -0.5 Z M 98.69849901334057 0.5 L 137.95168552668113 0.5 L 137.95168552668113 3.5 L 144.95168552668113 0 L 137.95168552668113 -3.5 L 137.95168552668113 -0.5 L 98.69849901334057 -0.5 Z"/><text text-anchor="middle" pointer-events="none" font-size="8px" fill="#000000" x="81.47584276334057" y="3" font-family="sans-serif">ORIGIN</text></g><g class="relationship" transform="translate(59.1888554017522 -414.3769324613169) rotate(496.3975246460666)"><path class="outline" fill="#A5ABB6" stroke="none" d="M 25 0.5 L 86.0688968296517 0.5 L 86.0688968296517 -0.5 L 25 -0.5 Z M 145.2563968296517 0.5 L 206.3252936593034 0.5 L 206.3252936593034 3.5 L 213.3252936593034 0 L 206.3252936593034 -3.5 L 206.3252936593034 -0.5 L 145.2563968296517 -0.5 Z"/><text text-anchor="middle" pointer-events="none" font-size="8px" fill="#000000" x="115.6626468296517" y="3" transform="rotate(180 115.6626468296517 0)" font-family="sans-serif">DESTINATION</text></g><g class="relationship" transform="translate(59.1888554017522 -414.3769324613169) rotate(404.9203699730611)"><path class="outline" fill="#A5ABB6" stroke="none" d="M 25 0.5 L 113.02629420446712 0.5 L 113.02629420446712 -0.5 L 25 -0.5 Z M 147.47160670446712 0.5 L 235.49790090893424 0.5 L 235.49790090893424 3.5 L 242.49790090893424 0 L 235.49790090893424 -3.5 L 235.49790090893424 -0.5 L 147.47160670446712 -0.5 Z"/><text text-anchor="middle" pointer-events="none" font-size="8px" fill="#000000" x="130.24895045446712" y="3" font-family="sans-serif">ORIGIN</text></g><g class="relationship" transform="translate(18.306344539415598 -224.03836796695458) rotate(191.15823545628416)"><path class="outline" fill="#A5ABB6" stroke="none" d="M 25 0.5 L 34.024450356789 0.5 L 34.024450356789 -0.5 L 25 -0.5 Z M 93.211950356789 0.5 L 102.236400713578 0.5 L 102.236400713578 3.5 L 109.236400713578 0 L 102.236400713578 -3.5 L 102.236400713578 -0.5 L 93.211950356789 -0.5 Z"/><text text-anchor="middle" pointer-events="none" font-size="8px" fill="#000000" x="63.618200356789" y="3" transform="rotate(180 63.618200356789 0)" font-family="sans-serif">DESTINATION</text></g><g class="relationship" transform="translate(18.306344539415598 -224.03836796695458) rotate(359.6387449442227)"><path class="outline" fill="#A5ABB6" stroke="none" d="M 25 0.5 L 94.42702710020268 0.5 L 94.42702710020268 -0.5 L 25 -0.5 Z M 128.87233960020268 0.5 L 198.29936670040536 0.5 L 198.29936670040536 3.5 L 205.29936670040536 0 L 198.29936670040536 -3.5 L 198.29936670040536 -0.5 L 128.87233960020268 -0.5 Z"/><text text-anchor="middle" pointer-events="none" font-size="8px" fill="#000000" x="111.64968335020268" y="3" font-family="sans-serif">ORIGIN</text></g><g class="relationship" transform="translate(38.8261866792262 -320.6564775934636) rotate(515.1051989200704)"><path class="outline" fill="#A5ABB6" stroke="none" d="M 25 0.5 L 63.18302485090322 0.5 L 63.18302485090322 -0.5 L 25 -0.5 Z M 97.62833735090322 0.5 L 135.81136220180645 0.5 L 135.81136220180645 3.5 L 142.81136220180645 0 L 135.81136220180645 -3.5 L 135.81136220180645 -0.5 L 97.62833735090322 -0.5 Z"/><text text-anchor="middle" pointer-events="none" font-size="8px" fill="#000000" x="80.40568110090322" y="3" transform="rotate(180 80.40568110090322 0)" font-family="sans-serif">ORIGIN</text></g><g class="relationship" transform="translate(38.8261866792262 -320.6564775934636) rotate(384.40179508482186)"><path class="outline" fill="#A5ABB6" stroke="none" d="M 25 0.5 L 82.08231902818402 0.5 L 82.08231902818402 -0.5 L 25 -0.5 Z M 141.26981902818403 0.5 L 198.35213805636803 0.5 L 198.35213805636803 3.5 L 205.35213805636803 0 L 198.35213805636803 -3.5 L 198.35213805636803 -0.5 L 141.26981902818403 -0.5 Z"/><text text-anchor="middle" pointer-events="none" font-size="8px" fill="#000000" x="111.67606902818402" y="3" font-family="sans-serif">DESTINATION</text></g><g class="relationship" transform="translate(-412.4249162447747 192.55502668724722) rotate(356.242365569031)"><path class="outline" fill="#A5ABB6" stroke="none" d="M 25 0.5 L 54.802155231285994 0.5 L 54.802155231285994 -0.5 L 25 -0.5 Z M 89.247467731286 0.5 L 119.04962296257199 0.5 L 119.04962296257199 3.5 L 126.04962296257199 0 L 119.04962296257199 -3.5 L 119.04962296257199 -0.5 L 89.247467731286 -0.5 Z"/><text text-anchor="middle" pointer-events="none" font-size="8px" fill="#000000" x="72.024811481286" y="3" font-family="sans-serif">ORIGIN</text></g><g class="relationship" transform="translate(-412.4249162447747 192.55502668724722) rotate(294.6136857342474)"><path class="outline" fill="#A5ABB6" stroke="none" d="M 25 0.5 L 53.92419693076809 0.5 L 53.92419693076809 -0.5 L 25 -0.5 Z M 113.11169693076809 0.5 L 142.03589386153618 0.5 L 142.03589386153618 3.5 L 149.03589386153618 0 L 142.03589386153618 -3.5 L 142.03589386153618 -0.5 L 113.11169693076809 -0.5 Z"/><text text-anchor="middle" pointer-events="none" font-size="8px" fill="#000000" x="83.51794693076809" y="3" font-family="sans-serif">DESTINATION</text></g><g class="relationship" transform="translate(-264.8522982476078 -118.41275515335542) rotate(476.1779452504877)"><path class="outline" fill="#A5ABB6" stroke="none" d="M 25 0.5 L 52.00796824370134 0.5 L 52.00796824370134 -0.5 L 25 -0.5 Z M 111.19546824370134 0.5 L 138.20343648740268 0.5 L 138.20343648740268 3.5 L 145.20343648740268 0 L 138.20343648740268 -3.5 L 138.20343648740268 -0.5 L 111.19546824370134 -0.5 Z"/><text text-anchor="middle" pointer-events="none" font-size="8px" fill="#000000" x="81.60171824370134" y="3" transform="rotate(180 81.60171824370134 0)" font-family="sans-serif">DESTINATION</text></g><g class="relationship" transform="translate(-264.8522982476078 -118.41275515335542) rotate(319.01272369185375)"><path class="outline" fill="#A5ABB6" stroke="none" d="M 25 0.5 L 79.60106958418882 0.5 L 79.60106958418882 -0.5 L 25 -0.5 Z M 114.04638208418882 0.5 L 168.64745166837764 0.5 L 168.64745166837764 3.5 L 175.64745166837764 0 L 168.64745166837764 -3.5 L 168.64745166837764 -0.5 L 114.04638208418882 -0.5 Z"/><text text-anchor="middle" pointer-events="none" font-size="8px" fill="#000000" x="96.82372583418882" y="3" font-family="sans-serif">ORIGIN</text></g><g class="relationship" transform="translate(-435.3901375628804 96.99659215113401) rotate(386.2512592656832)"><path class="outline" fill="#A5ABB6" stroke="none" d="M 25 0.5 L 76.10936479062421 0.5 L 76.10936479062421 -0.5 L 25 -0.5 Z M 110.55467729062421 0.5 L 161.66404208124843 0.5 L 161.66404208124843 3.5 L 168.66404208124843 0 L 161.66404208124843 -3.5 L 161.66404208124843 -0.5 L 110.55467729062421 -0.5 Z"/><text text-anchor="middle" pointer-events="none" font-size="8px" fill="#000000" x="93.33202104062421" y="3" font-family="sans-serif">ORIGIN</text></g><g class="relationship" transform="translate(-435.3901375628804 96.99659215113401) rotate(326.7148854481769)"><path class="outline" fill="#A5ABB6" stroke="none" d="M 25 0.5 L 25.997475460923418 0.5 L 25.997475460923418 -0.5 L 25 -0.5 Z M 81.18497546092343 0.5 L 82.18245092184684 0.5 L 82.18245092184684 3.5 L 89.18245092184684 0 L 82.18245092184684 -3.5 L 82.18245092184684 -0.5 L 81.18497546092343 -0.5 Z"/><text text-anchor="middle" pointer-events="none" font-size="8px" fill="#000000" x="53.59122546092342" y="3" font-family="sans-serif">DESTINATI…</text></g><g class="relationship" transform="translate(-280.84791818316114 -215.1618430868887) rotate(463.3246638646075)"><path class="outline" fill="#A5ABB6" stroke="none" d="M 25 0.5 L 107.47570530712858 0.5 L 107.47570530712858 -0.5 L 25 -0.5 Z M 141.92101780712858 0.5 L 224.39672311425716 0.5 L 224.39672311425716 3.5 L 231.39672311425716 0 L 224.39672311425716 -3.5 L 224.39672311425716 -0.5 L 141.92101780712858 -0.5 Z"/><text text-anchor="middle" pointer-events="none" font-size="8px" fill="#000000" x="124.69836155712858" y="3" transform="rotate(180 124.69836155712858 0)" font-family="sans-serif">ORIGIN</text></g><g class="relationship" transform="translate(-280.84791818316114 -215.1618430868887) rotate(348.24243106513177)"><path class="outline" fill="#A5ABB6" stroke="none" d="M 25 0.5 L 52.428327541823265 0.5 L 52.428327541823265 -0.5 L 25 -0.5 Z M 111.61582754182326 0.5 L 139.04415508364653 0.5 L 139.04415508364653 3.5 L 146.04415508364653 0 L 139.04415508364653 -3.5 L 139.04415508364653 -0.5 L 111.61582754182326 -0.5 Z"/><text text-anchor="middle" pointer-events="none" font-size="8px" fill="#000000" x="82.02207754182326" y="3" font-family="sans-serif">DESTINATION</text></g><g class="relationship" transform="translate(-367.0925703056202 279.0486235488258) rotate(317.55373498585215)"><path class="outline" fill="#A5ABB6" stroke="none" d="M 25 0.5 L 38.319066237048986 0.5 L 38.319066237048986 -0.5 L 25 -0.5 Z M 97.50656623704899 0.5 L 110.82563247409797 0.5 L 110.82563247409797 3.5 L 117.82563247409797 0 L 110.82563247409797 -3.5 L 110.82563247409797 -0.5 L 97.50656623704899 -0.5 Z"/><text text-anchor="middle" pointer-events="none" font-size="8px" fill="#000000" x="67.91281623704899" y="3" font-family="sans-serif">DESTINATION</text></g><g class="relationship" transform="translate(-367.0925703056202 279.0486235488258) rotate(276.33153763277363)"><path class="outline" fill="#A5ABB6" stroke="none" d="M 25 0.5 L 102.38626168644274 0.5 L 102.38626168644274 -0.5 L 25 -0.5 Z M 136.83157418644274 0.5 L 214.21783587288547 0.5 L 214.21783587288547 3.5 L 221.21783587288547 0 L 214.21783587288547 -3.5 L 214.21783587288547 -0.5 L 136.83157418644274 -0.5 Z"/><text text-anchor="middle" pointer-events="none" font-size="8px" fill="#000000" x="119.60891793644274" y="3" font-family="sans-serif">ORIGIN</text></g><g class="relationship" transform="translate(-506.70999539158595 163.53741605849265) rotate(364.4618141765576)"><path class="outline" fill="#A5ABB6" stroke="none" d="M 25 0.5 L 102.15472337988804 0.5 L 102.15472337988804 -0.5 L 25 -0.5 Z M 136.60003587988803 0.5 L 213.75475925977608 0.5 L 213.75475925977608 3.5 L 220.75475925977608 0 L 213.75475925977608 -3.5 L 213.75475925977608 -0.5 L 136.60003587988803 -0.5 Z"/><text text-anchor="middle" pointer-events="none" font-size="8px" fill="#000000" x="119.37737962988804" y="3" font-family="sans-serif">ORIGIN</text></g><g class="relationship" transform="translate(-506.70999539158595 163.53741605849265) rotate(264.0832545593813)"><path class="outline" fill="#A5ABB6" stroke="none" d="M 25 0.5 L 83.11807255676742 0.5 L 83.11807255676742 -0.5 L 25 -0.5 Z M 142.3055725567674 0.5 L 200.42364511353483 0.5 L 200.42364511353483 3.5 L 207.42364511353483 0 L 200.42364511353483 -3.5 L 200.42364511353483 -0.5 L 142.3055725567674 -0.5 Z"/><text text-anchor="middle" pointer-events="none" font-size="8px" fill="#000000" x="112.71182255676742" y="3" transform="rotate(180 112.71182255676742 0)" font-family="sans-serif">DESTINATION</text></g><g class="relationship" transform="translate(-357.70749626372213 -154.94148885282857) rotate(513.2199794489998)"><path class="outline" fill="#A5ABB6" stroke="none" d="M 25 0.5 L 63.77706582247767 0.5 L 63.77706582247767 -0.5 L 25 -0.5 Z M 122.96456582247767 0.5 L 161.74163164495533 0.5 L 161.74163164495533 3.5 L 168.74163164495533 0 L 161.74163164495533 -3.5 L 161.74163164495533 -0.5 L 122.96456582247767 -0.5 Z"/><text text-anchor="middle" pointer-events="none" font-size="8px" fill="#000000" x="93.37081582247767" y="3" transform="rotate(180 93.37081582247767 0)" font-family="sans-serif">DESTINATION</text></g><g class="relationship" transform="translate(-357.70749626372213 -154.94148885282857) rotate(338.73669749212263)"><path class="outline" fill="#A5ABB6" stroke="none" d="M 25 0.5 L 110.35834422683766 0.5 L 110.35834422683766 -0.5 L 25 -0.5 Z M 144.80365672683766 0.5 L 230.16200095367532 0.5 L 230.16200095367532 3.5 L 237.16200095367532 0 L 230.16200095367532 -3.5 L 230.16200095367532 -0.5 L 144.80365672683766 -0.5 Z"/><text text-anchor="middle" pointer-events="none" font-size="8px" fill="#000000" x="127.58100047683766" y="3" font-family="sans-serif">ORIGIN</text></g><g class="relationship" transform="translate(-373.17325689127284 -251.9203105309453) rotate(490.52019109054856)"><path class="outline" fill="#A5ABB6" stroke="none" d="M 25 0.5 L 88.10976695683793 0.5 L 88.10976695683793 -0.5 L 25 -0.5 Z M 147.29726695683792 0.5 L 210.40703391367586 0.5 L 210.40703391367586 3.5 L 217.40703391367586 0 L 210.40703391367586 -3.5 L 210.40703391367586 -0.5 L 147.29726695683792 -0.5 Z"/><text text-anchor="middle" pointer-events="none" font-size="8px" fill="#000000" x="117.70351695683793" y="3" transform="rotate(180 117.70351695683793 0)" font-family="sans-serif">DESTINATION</text></g><g class="relationship" transform="translate(-373.17325689127284 -251.9203105309453) rotate(360.4200635469459)"><path class="outline" fill="#A5ABB6" stroke="none" d="M 25 0.5 L 109.17120543524533 0.5 L 109.17120543524533 -0.5 L 25 -0.5 Z M 143.61651793524533 0.5 L 227.78772337049065 0.5 L 227.78772337049065 3.5 L 234.78772337049065 0 L 227.78772337049065 -3.5 L 227.78772337049065 -0.5 L 143.61651793524533 -0.5 Z"/><text text-anchor="middle" pointer-events="none" font-size="8px" fill="#000000" x="126.39386168524533" y="3" font-family="sans-serif">ORIGIN</text></g><g class="relationship" transform="translate(-79.73439344929405 -156.205007814708) rotate(503.7861789390485)"><path class="outline" fill="#A5ABB6" stroke="none" d="M 25 0.5 L 128.1600801704797 0.5 L 128.1600801704797 -0.5 L 25 -0.5 Z M 187.3475801704797 0.5 L 290.5076603409594 0.5 L 290.5076603409594 3.5 L 297.5076603409594 0 L 290.5076603409594 -3.5 L 290.5076603409594 -0.5 L 187.3475801704797 -0.5 Z"/><text text-anchor="middle" pointer-events="none" font-size="8px" fill="#000000" x="157.7538301704797" y="3" transform="rotate(180 157.7538301704797 0)" font-family="sans-serif">DESTINATION</text></g><g class="relationship" transform="translate(-79.73439344929405 -156.205007814708) rotate(348.0842514372424)"><path class="outline" fill="#A5ABB6" stroke="none" d="M 25 0.5 L 147.06045239017317 0.5 L 147.06045239017317 -0.5 L 25 -0.5 Z M 181.50576489017317 0.5 L 303.56621728034634 0.5 L 303.56621728034634 3.5 L 310.56621728034634 0 L 303.56621728034634 -3.5 L 303.56621728034634 -0.5 L 181.50576489017317 -0.5 Z"/><text text-anchor="middle" pointer-events="none" font-size="8px" fill="#000000" x="164.28310864017317" y="3" font-family="sans-serif">ORIGIN</text></g></g><g class="layer nodes"><g class="node" aria-label="graph-node192" transform="translate(-261.70001981030777,182.65582510558562)"><circle class="outline" cx="0" cy="0" r="25" fill="#8DCC93" stroke="#5db665" stroke-width="2px"/><text class="caption" text-anchor="middle" pointer-events="none" x="0" y="5" font-size="10px" fill="#2A2C34" font-family="sans-serif"> LAX</text></g><g class="node" aria-label="graph-node257" transform="translate(521.7831316944373,422.25881573878917)"><circle class="outline" cx="0" cy="0" r="25" fill="#8DCC93" stroke="#5db665" stroke-width="2px"/><text class="caption" text-anchor="middle" pointer-events="none" x="0" y="5" font-size="10px" fill="#2A2C34" font-family="sans-serif"> DAY</text></g><g class="node" aria-label="graph-node846" transform="translate(-258.29984440628795,323.6194380537336)"><circle class="outline" cx="0" cy="0" r="25" fill="#ECB5C9" stroke="#da7298" stroke-width="2px"/><text class="caption" text-anchor="middle" pointer-events="none" x="0" y="5" font-size="10px" fill="#2A2C34" font-family="sans-serif"> 11/29/20…</text></g><g class="node" aria-label="graph-node212" transform="translate(-112.8864729281411,130.52682628761627)"><circle class="outline" cx="0" cy="0" r="25" fill="#8DCC93" stroke="#5db665" stroke-width="2px"/><text class="caption" text-anchor="middle" pointer-events="none" x="0" y="5" font-size="10px" fill="#2A2C34" font-family="sans-serif"> LAS</text></g><g class="node" aria-label="graph-node830" transform="translate(91.45294658306393,-63.37051700202445)"><circle class="outline" cx="0" cy="0" r="25" fill="#ECB5C9" stroke="#da7298" stroke-width="2px"/><text class="caption" text-anchor="middle" pointer-events="none" x="0" y="5" font-size="10px" fill="#2A2C34" font-family="sans-serif"> 11/29/20…</text></g><g class="node" aria-label="graph-node204" transform="translate(248.60113357582443,-225.49041661755987)"><circle class="outline" cx="0" cy="0" r="25" fill="#8DCC93" stroke="#5db665" stroke-width="2px"/><text class="caption" text-anchor="middle" pointer-events="none" x="0" y="5" font-size="10px" fill="#2A2C34" font-family="sans-serif"> DEN</text></g><g class="node" aria-label="graph-node810" transform="translate(374.7608539769812,-48.56003975645268)"><circle class="outline" cx="0" cy="0" r="25" fill="#ECB5C9" stroke="#da7298" stroke-width="2px"/><text class="caption" text-anchor="middle" pointer-events="none" x="0" y="5" font-size="10px" fill="#2A2C34" font-family="sans-serif"> 11/29/20…</text></g><g class="node" aria-label="graph-node195" transform="translate(344.35530736604034,145.47578960978618)"><circle class="outline" cx="0" cy="0" r="25" fill="#8DCC93" stroke="#5db665" stroke-width="2px"/><text class="caption" text-anchor="middle" pointer-events="none" x="0" y="5" font-size="10px" fill="#2A2C34" font-family="sans-serif"> MSP</text></g><g class="node" aria-label="graph-node1278" transform="translate(478.3121061012111,322.5475069820438)"><circle class="outline" cx="0" cy="0" r="25" fill="#ECB5C9" stroke="#da7298" stroke-width="2px"/><text class="caption" text-anchor="middle" pointer-events="none" x="0" y="5" font-size="10px" fill="#2A2C34" font-family="sans-serif"> 11/23/20…</text></g><g class="node" aria-label="graph-node1262" transform="translate(387.13526806927587,286.7387921028219)"><circle class="outline" cx="0" cy="0" r="25" fill="#ECB5C9" stroke="#da7298" stroke-width="2px"/><text class="caption" text-anchor="middle" pointer-events="none" x="0" y="5" font-size="10px" fill="#2A2C34" font-family="sans-serif"> 11/11/20…</text></g><g class="node" aria-label="graph-node1274" transform="translate(365.5135089706828,381.9369081343248)"><circle class="outline" cx="0" cy="0" r="25" fill="#ECB5C9" stroke="#da7298" stroke-width="2px"/><text class="caption" text-anchor="middle" pointer-events="none" x="0" y="5" font-size="10px" fill="#2A2C34" font-family="sans-serif"> 11/25/20…</text></g><g class="node" aria-label="graph-node1266" transform="translate(464.029593365936,225.64885139230438)"><circle class="outline" cx="0" cy="0" r="25" fill="#ECB5C9" stroke="#da7298" stroke-width="2px"/><text class="caption" text-anchor="middle" pointer-events="none" x="0" y="5" font-size="10px" fill="#2A2C34" font-family="sans-serif"> 11/16/20…</text></g><g class="node" aria-label="graph-node1270" transform="translate(555.201894786102,259.9949970016349)"><circle class="outline" cx="0" cy="0" r="25" fill="#ECB5C9" stroke="#da7298" stroke-width="2px"/><text class="caption" text-anchor="middle" pointer-events="none" x="0" y="5" font-size="10px" fill="#2A2C34" font-family="sans-serif"> 11/20/20…</text></g><g class="node" aria-label="graph-node1182" transform="translate(-96.48424990123965,228.23379055423672)"><circle class="outline" cx="0" cy="0" r="25" fill="#ECB5C9" stroke="#da7298" stroke-width="2px"/><text class="caption" text-anchor="middle" pointer-events="none" x="0" y="0" font-size="10px" fill="#2A2C34" font-family="sans-serif"> 11/2/2015</text><text class="caption" text-anchor="middle" pointer-events="none" x="0" y="10" font-size="10px" fill="#2A2C34" font-family="sans-serif"> 11:49:…</text></g><g class="node" aria-label="graph-node200" transform="translate(42.10847949610466,240.37966418274766)"><circle class="outline" cx="0" cy="0" r="25" fill="#8DCC93" stroke="#5db665" stroke-width="2px"/><text class="caption" text-anchor="middle" pointer-events="none" x="0" y="5" font-size="10px" fill="#2A2C34" font-family="sans-serif"> SMF</text></g><g class="node" aria-label="graph-node366" transform="translate(239.45270796899155,58.33567466676357)"><circle class="outline" cx="0" cy="0" r="25" fill="#ECB5C9" stroke="#da7298" stroke-width="2px"/><text class="caption" text-anchor="middle" pointer-events="none" x="0" y="5" font-size="10px" fill="#2A2C34" font-family="sans-serif"> 11/30/20…</text></g><g class="node" aria-label="graph-node1194" transform="translate(-66.56671668203762,322.6387350203196)"><circle class="outline" cx="0" cy="0" r="25" fill="#ECB5C9" stroke="#da7298" stroke-width="2px"/><text class="caption" text-anchor="middle" pointer-events="none" x="0" y="0" font-size="10px" fill="#2A2C34" font-family="sans-serif"> 11/3/2015</text><text class="caption" text-anchor="middle" pointer-events="none" x="0" y="10" font-size="10px" fill="#2A2C34" font-family="sans-serif"> 13:44:…</text></g><g class="node" aria-label="graph-node1186" transform="translate(-133.35416911154036,394.43691844136504)"><circle class="outline" cx="0" cy="0" r="25" fill="#ECB5C9" stroke="#da7298" stroke-width="2px"/><text class="caption" text-anchor="middle" pointer-events="none" x="0" y="0" font-size="10px" fill="#2A2C34" font-family="sans-serif"> 11/1/2015</text><text class="caption" text-anchor="middle" pointer-events="none" x="0" y="10" font-size="10px" fill="#2A2C34" font-family="sans-serif"> 12:26:…</text></g><g class="node" aria-label="graph-node1190" transform="translate(-162.214004060694,301.5413910032054)"><circle class="outline" cx="0" cy="0" r="25" fill="#ECB5C9" stroke="#da7298" stroke-width="2px"/><text class="caption" text-anchor="middle" pointer-events="none" x="0" y="0" font-size="10px" fill="#2A2C34" font-family="sans-serif"> 11/4/2015</text><text class="caption" text-anchor="middle" pointer-events="none" x="0" y="10" font-size="10px" fill="#2A2C34" font-family="sans-serif"> 05:06:…</text></g><g class="node" aria-label="graph-node670" transform="translate(5.07959982863988,-110.20739735337445)"><circle class="outline" cx="0" cy="0" r="25" fill="#ECB5C9" stroke="#da7298" stroke-width="2px"/><text class="caption" text-anchor="middle" pointer-events="none" x="0" y="5" font-size="10px" fill="#2A2C34" font-family="sans-serif"> 11/29/20…</text></g><g class="node" aria-label="graph-node198" transform="translate(186.91581389689946,-440.61543853640495)"><circle class="outline" cx="0" cy="0" r="25" fill="#8DCC93" stroke="#5db665" stroke-width="2px"/><text class="caption" text-anchor="middle" pointer-events="none" x="0" y="5" font-size="10px" fill="#2A2C34" font-family="sans-serif"> SFO</text></g><g class="node" aria-label="graph-node402" transform="translate(325.4272534080092,-316.93433465662423)"><circle class="outline" cx="0" cy="0" r="25" fill="#ECB5C9" stroke="#da7298" stroke-width="2px"/><text class="caption" text-anchor="middle" pointer-events="none" x="0" y="5" font-size="10px" fill="#2A2C34" font-family="sans-serif"> 11/30/20…</text></g><g class="node" aria-label="graph-node330" transform="translate(421.2664263665043,-308.0428800546567)"><circle class="outline" cx="0" cy="0" r="25" fill="#ECB5C9" stroke="#da7298" stroke-width="2px"/><text class="caption" text-anchor="middle" pointer-events="none" x="0" y="5" font-size="10px" fill="#2A2C34" font-family="sans-serif"> 11/30/20…</text></g><g class="node" aria-label="graph-node674" transform="translate(285.23303115793425,-406.0296289341142)"><circle class="outline" cx="0" cy="0" r="25" fill="#ECB5C9" stroke="#da7298" stroke-width="2px"/><text class="caption" text-anchor="middle" pointer-events="none" x="0" y="5" font-size="10px" fill="#2A2C34" font-family="sans-serif"> 11/29/20…</text></g><g class="node" aria-label="graph-node806" transform="translate(382.6195591435888,-396.8568295588781)"><circle class="outline" cx="0" cy="0" r="25" fill="#ECB5C9" stroke="#da7298" stroke-width="2px"/><text class="caption" text-anchor="middle" pointer-events="none" x="0" y="5" font-size="10px" fill="#2A2C34" font-family="sans-serif"> 11/29/20…</text></g><g class="node" aria-label="graph-node666" transform="translate(340.9553325513676,-485.4998133368975)"><circle class="outline" cx="0" cy="0" r="25" fill="#ECB5C9" stroke="#da7298" stroke-width="2px"/><text class="caption" text-anchor="middle" pointer-events="none" x="0" y="5" font-size="10px" fill="#2A2C34" font-family="sans-serif"> 11/29/20…</text></g><g class="node" aria-label="graph-node414" transform="translate(228.6698514363656,-327.6059589083788)"><circle class="outline" cx="0" cy="0" r="25" fill="#ECB5C9" stroke="#da7298" stroke-width="2px"/><text class="caption" text-anchor="middle" pointer-events="none" x="0" y="5" font-size="10px" fill="#2A2C34" font-family="sans-serif"> 11/30/20…</text></g><g class="node" aria-label="graph-node338" transform="translate(-163.77813509030074,3.013725279492583)"><circle class="outline" cx="0" cy="0" r="25" fill="#ECB5C9" stroke="#da7298" stroke-width="2px"/><text class="caption" text-anchor="middle" pointer-events="none" x="0" y="5" font-size="10px" fill="#2A2C34" font-family="sans-serif"> 11/30/20…</text></g><g class="node" aria-label="graph-node194" transform="translate(-113.39251538516231,-250.01569598780185)"><circle class="outline" cx="0" cy="0" r="25" fill="#8DCC93" stroke="#5db665" stroke-width="2px"/><text class="caption" text-anchor="middle" pointer-events="none" x="0" y="5" font-size="10px" fill="#2A2C34" font-family="sans-serif"> ORD</text></g><g class="node" aria-label="graph-node782" transform="translate(175.91215878977894,-18.28254227823454)"><circle class="outline" cx="0" cy="0" r="25" fill="#ECB5C9" stroke="#da7298" stroke-width="2px"/><text class="caption" text-anchor="middle" pointer-events="none" x="0" y="5" font-size="10px" fill="#2A2C34" font-family="sans-serif"> 11/29/20…</text></g><g class="node" aria-label="graph-node506" transform="translate(94.94249668917959,33.95427161793533)"><circle class="outline" cx="0" cy="0" r="25" fill="#ECB5C9" stroke="#da7298" stroke-width="2px"/><text class="caption" text-anchor="middle" pointer-events="none" x="0" y="5" font-size="10px" fill="#2A2C34" font-family="sans-serif"> 11/29/20…</text></g><g class="node" aria-label="graph-node306" transform="translate(176.72128032139344,-114.32897875577159)"><circle class="outline" cx="0" cy="0" r="25" fill="#ECB5C9" stroke="#da7298" stroke-width="2px"/><text class="caption" text-anchor="middle" pointer-events="none" x="0" y="5" font-size="10px" fill="#2A2C34" font-family="sans-serif"> 11/30/20…</text></g><g class="node" aria-label="graph-node850" transform="translate(-257.34292089526554,-21.713612034800533)"><circle class="outline" cx="0" cy="0" r="25" fill="#ECB5C9" stroke="#da7298" stroke-width="2px"/><text class="caption" text-anchor="middle" pointer-events="none" x="0" y="5" font-size="10px" fill="#2A2C34" font-family="sans-serif"> 11/29/20…</text></g><g class="node" aria-label="graph-node778" transform="translate(-79.53837013265455,-58.06191961542025)"><circle class="outline" cx="0" cy="0" r="25" fill="#ECB5C9" stroke="#da7298" stroke-width="2px"/><text class="caption" text-anchor="middle" pointer-events="none" x="0" y="5" font-size="10px" fill="#2A2C34" font-family="sans-serif"> 11/29/20…</text></g><g class="node" aria-label="graph-node682" transform="translate(-169.2521085191683,-94.63414211945253)"><circle class="outline" cx="0" cy="0" r="25" fill="#ECB5C9" stroke="#da7298" stroke-width="2px"/><text class="caption" text-anchor="middle" pointer-events="none" x="0" y="5" font-size="10px" fill="#2A2C34" font-family="sans-serif"> 11/29/20…</text></g><g class="node" aria-label="graph-node362" transform="translate(-73.72308940948619,40.58515215945423)"><circle class="outline" cx="0" cy="0" r="25" fill="#ECB5C9" stroke="#da7298" stroke-width="2px"/><text class="caption" text-anchor="middle" pointer-events="none" x="0" y="5" font-size="10px" fill="#2A2C34" font-family="sans-serif"> 11/30/20…</text></g><g class="node" aria-label="graph-node754" transform="translate(8.633578657815308,-12.403469873966017)"><circle class="outline" cx="0" cy="0" r="25" fill="#ECB5C9" stroke="#da7298" stroke-width="2px"/><text class="caption" text-anchor="middle" pointer-events="none" x="0" y="5" font-size="10px" fill="#2A2C34" font-family="sans-serif"> 11/29/20…</text></g><g class="node" aria-label="graph-node514" transform="translate(-34.95119359518685,-386.4560110095492)"><circle class="outline" cx="0" cy="0" r="25" fill="#ECB5C9" stroke="#da7298" stroke-width="2px"/><text class="caption" text-anchor="middle" pointer-events="none" x="0" y="5" font-size="10px" fill="#2A2C34" font-family="sans-serif"> 11/29/20…</text></g><g class="node" aria-label="graph-node298" transform="translate(-12.604965373625332,-481.236750794043)"><circle class="outline" cx="0" cy="0" r="25" fill="#ECB5C9" stroke="#da7298" stroke-width="2px"/><text class="caption" text-anchor="middle" pointer-events="none" x="0" y="5" font-size="10px" fill="#2A2C34" font-family="sans-serif"> 11/30/20…</text></g><g class="node" aria-label="graph-node290" transform="translate(-416.79488358210426,-28.89489587337117)"><circle class="outline" cx="0" cy="0" r="25" fill="#ECB5C9" stroke="#da7298" stroke-width="2px"/><text class="caption" text-anchor="middle" pointer-events="none" x="0" y="5" font-size="10px" fill="#2A2C34" font-family="sans-serif"> 11/30/20…</text></g><g class="node" aria-label="graph-node189" transform="translate(-460.26287371963446,-300.15450737972003)"><circle class="outline" cx="0" cy="0" r="25" fill="#8DCC93" stroke="#5db665" stroke-width="2px"/><text class="caption" text-anchor="middle" pointer-events="none" x="0" y="5" font-size="10px" fill="#2A2C34" font-family="sans-serif"> IAH</text></g><g class="node" aria-label="graph-node714" transform="translate(-230.85364075242757,-387.789530560883)"><circle class="outline" cx="0" cy="0" r="25" fill="#ECB5C9" stroke="#da7298" stroke-width="2px"/><text class="caption" text-anchor="middle" pointer-events="none" x="0" y="5" font-size="10px" fill="#2A2C34" font-family="sans-serif"> 11/29/20…</text></g><g class="node" aria-label="graph-node702" transform="translate(-294.726579054561,-313.10456644610707)"><circle class="outline" cx="0" cy="0" r="25" fill="#ECB5C9" stroke="#da7298" stroke-width="2px"/><text class="caption" text-anchor="middle" pointer-events="none" x="0" y="5" font-size="10px" fill="#2A2C34" font-family="sans-serif"> 11/29/20…</text></g><g class="node" aria-label="graph-node346" transform="translate(-326.99839903854996,-405.0331356538217)"><circle class="outline" cx="0" cy="0" r="25" fill="#ECB5C9" stroke="#da7298" stroke-width="2px"/><text class="caption" text-anchor="middle" pointer-events="none" x="0" y="5" font-size="10px" fill="#2A2C34" font-family="sans-serif"> 11/30/20…</text></g><g class="node" aria-label="graph-node866" transform="translate(111.56113768386558,-255.19167868865452)"><circle class="outline" cx="0" cy="0" r="25" fill="#ECB5C9" stroke="#da7298" stroke-width="2px"/><text class="caption" text-anchor="middle" pointer-events="none" x="0" y="5" font-size="10px" fill="#2A2C34" font-family="sans-serif"> 11/29/20…</text></g><g class="node" aria-label="graph-node854" transform="translate(89.85352563297587,-159.80826227947873)"><circle class="outline" cx="0" cy="0" r="25" fill="#ECB5C9" stroke="#da7298" stroke-width="2px"/><text class="caption" text-anchor="middle" pointer-events="none" x="0" y="5" font-size="10px" fill="#2A2C34" font-family="sans-serif"> 11/29/20…</text></g><g class="node" aria-label="graph-node590" transform="translate(132.01364145941676,-349.1469251214251)"><circle class="outline" cx="0" cy="0" r="25" fill="#ECB5C9" stroke="#da7298" stroke-width="2px"/><text class="caption" text-anchor="middle" pointer-events="none" x="0" y="5" font-size="10px" fill="#2A2C34" font-family="sans-serif"> 11/29/20…</text></g><g class="node" aria-label="graph-node654" transform="translate(59.1888554017522,-414.3769324613169)"><circle class="outline" cx="0" cy="0" r="25" fill="#ECB5C9" stroke="#da7298" stroke-width="2px"/><text class="caption" text-anchor="middle" pointer-events="none" x="0" y="5" font-size="10px" fill="#2A2C34" font-family="sans-serif"> 11/29/20…</text></g><g class="node" aria-label="graph-node450" transform="translate(18.306344539415598,-224.03836796695458)"><circle class="outline" cx="0" cy="0" r="25" fill="#ECB5C9" stroke="#da7298" stroke-width="2px"/><text class="caption" text-anchor="middle" pointer-events="none" x="0" y="5" font-size="10px" fill="#2A2C34" font-family="sans-serif"> 11/30/20…</text></g><g class="node" aria-label="graph-node610" transform="translate(38.8261866792262,-320.6564775934636)"><circle class="outline" cx="0" cy="0" r="25" fill="#ECB5C9" stroke="#da7298" stroke-width="2px"/><text class="caption" text-anchor="middle" pointer-events="none" x="0" y="5" font-size="10px" fill="#2A2C34" font-family="sans-serif"> 11/29/20…</text></g><g class="node" aria-label="graph-node322" transform="translate(-412.4249162447747,192.55502668724722)"><circle class="outline" cx="0" cy="0" r="25" fill="#ECB5C9" stroke="#da7298" stroke-width="2px"/><text class="caption" text-anchor="middle" pointer-events="none" x="0" y="5" font-size="10px" fill="#2A2C34" font-family="sans-serif"> 11/30/20…</text></g><g class="node" aria-label="graph-node188" transform="translate(-339.9393212164451,34.33261719487196)"><circle class="outline" cx="0" cy="0" r="25" fill="#8DCC93" stroke="#5db665" stroke-width="2px"/><text class="caption" text-anchor="middle" pointer-events="none" x="0" y="5" font-size="10px" fill="#2A2C34" font-family="sans-serif"> EWR</text></g><g class="node" aria-label="graph-node318" transform="translate(-264.8522982476078,-118.41275515335542)"><circle class="outline" cx="0" cy="0" r="25" fill="#ECB5C9" stroke="#da7298" stroke-width="2px"/><text class="caption" text-anchor="middle" pointer-events="none" x="0" y="5" font-size="10px" fill="#2A2C34" font-family="sans-serif"> 11/30/20…</text></g><g class="node" aria-label="graph-node730" transform="translate(-435.3901375628804,96.99659215113401)"><circle class="outline" cx="0" cy="0" r="25" fill="#ECB5C9" stroke="#da7298" stroke-width="2px"/><text class="caption" text-anchor="middle" pointer-events="none" x="0" y="5" font-size="10px" fill="#2A2C34" font-family="sans-serif"> 11/29/20…</text></g><g class="node" aria-label="graph-node334" transform="translate(-280.84791818316114,-215.1618430868887)"><circle class="outline" cx="0" cy="0" r="25" fill="#ECB5C9" stroke="#da7298" stroke-width="2px"/><text class="caption" text-anchor="middle" pointer-events="none" x="0" y="5" font-size="10px" fill="#2A2C34" font-family="sans-serif"> 11/30/20…</text></g><g class="node" aria-label="graph-node746" transform="translate(-367.0925703056202,279.0486235488258)"><circle class="outline" cx="0" cy="0" r="25" fill="#ECB5C9" stroke="#da7298" stroke-width="2px"/><text class="caption" text-anchor="middle" pointer-events="none" x="0" y="5" font-size="10px" fill="#2A2C34" font-family="sans-serif"> 11/29/20…</text></g><g class="node" aria-label="graph-node834" transform="translate(-506.70999539158595,163.53741605849265)"><circle class="outline" cx="0" cy="0" r="25" fill="#ECB5C9" stroke="#da7298" stroke-width="2px"/><text class="caption" text-anchor="middle" pointer-events="none" x="0" y="5" font-size="10px" fill="#2A2C34" font-family="sans-serif"> 11/29/20…</text></g><g class="node" aria-label="graph-node203" transform="translate(-530.6689794781458,-67.64804604802119)"><circle class="outline" cx="0" cy="0" r="25" fill="#8DCC93" stroke="#5db665" stroke-width="2px"/><text class="caption" text-anchor="middle" pointer-events="none" x="0" y="5" font-size="10px" fill="#2A2C34" font-family="sans-serif"> BOS</text></g><g class="node" aria-label="graph-node858" transform="translate(-357.70749626372213,-154.94148885282857)"><circle class="outline" cx="0" cy="0" r="25" fill="#ECB5C9" stroke="#da7298" stroke-width="2px"/><text class="caption" text-anchor="middle" pointer-events="none" x="0" y="5" font-size="10px" fill="#2A2C34" font-family="sans-serif"> 11/29/20…</text></g><g class="node" aria-label="graph-node446" transform="translate(-373.17325689127284,-251.9203105309453)"><circle class="outline" cx="0" cy="0" r="25" fill="#ECB5C9" stroke="#da7298" stroke-width="2px"/><text class="caption" text-anchor="middle" pointer-events="none" x="0" y="5" font-size="10px" fill="#2A2C34" font-family="sans-serif"> 11/30/20…</text></g><g class="node" aria-label="graph-node418" transform="translate(-79.73439344929405,-156.205007814708)"><circle class="outline" cx="0" cy="0" r="25" fill="#ECB5C9" stroke="#da7298" stroke-width="2px"/><text class="caption" text-anchor="middle" pointer-events="none" x="0" y="5" font-size="10px" fill="#2A2C34" font-family="sans-serif"> 11/30/20…</text></g></g></svg>