<svg xmlns="http://www.w3.org/2000/svg" width="323.7564697265625" height="537.38037109375" viewBox="-139.68667602539062 -288.6280212402344 323.7564697265625 537.38037109375"><title>Neo4j Graph Visualization</title><desc>Created using Neo4j (http://www.neo4j.com/)</desc><g class="layer relationships"><g class="relationship" transform="translate(-10.420530364921536 146.88427174058248) rotate(309.8972864104311)"><path class="outline" fill="#A5ABB6" stroke="none" d="M 21.40063509461097,12.933012701892217 L 21.90063509461097,12.06698729810778 A 100.55939853832217 100.55939853832217 0 0 0 58.96928963319154,24.667810942235718 L 58.83791409870537,25.659143615427965 A 101.55939853832217 101.55939853832217 0 0 1 21.40063509461097,12.933012701892217 Z M 80.9090735781765,26.163591767193267 L 80.82312644438059,25.16729206821094 A 100.55939853832217 100.55939853832217 0 0 0 118.42877008612096,14.273189438738914 L 117.04903523106242,11.609295347425117 L 124.87447877502959,11.497790458821266 L 120.26841655953237,17.82504822715731 L 118.88868170447383,15.161154135843514 A 101.55939853832217 101.55939853832217 0 0 1 80.9090735781765,26.163591767193267"/><text text-anchor="middle" pointer-events="none" font-size="8px" fill="#000000" x="69.87117081827627" y="29.013006974453944" font-family="sans-serif">road</text></g><g class="relationship" transform="translate(83.91442988961894 34.050066050318385) rotate(295.140808023039)"><path class="outline" fill="#A5ABB6" stroke="none" d="M 24.018736134675446,-6.953439040707552 L 24.277555179777966,-5.987513214418485 A 225.1542671464527 225.1542671464527 0 0 1 70.56993031167941,-13.340419321675569 L 70.51671418815862,-14.33900233985554 A 226.1542671464527 226.1542671464527 0 0 0 24.018736134675446,-6.953439040707552 Z M 89.8885206178742,-14.54042035699726 L 89.85607925337082,-13.540946716589872 A 225.1542671464527 225.1542671464527 0 0 1 136.29133324426235,-7.152174504637177 L 135.5752966398227,-4.238878848322403 L 143.2083625430701,-5.966971703663778 L 137.24604871684855,-11.036568713056877 L 136.5300121124089,-8.123273056742102 A 226.1542671464527 226.1542671464527 0 0 0 89.8885206178742,-14.54042035699726"/><text text-anchor="middle" pointer-events="none" font-size="8px" fill="#000000" x="80.20565813646047" y="-11.147262338558903" font-family="sans-serif">trek</text></g><g class="relationship" transform="translate(155.0698272561381 -117.5692317066375) rotate(246.48230278812468)"><path class="outline" fill="#A5ABB6" stroke="none" d="M 24.018736134675446,-6.953439040707552 L 24.277555179777966,-5.987513214418485 A 200.52051113132597 200.52051113132597 0 0 1 64.29238059387453,-12.46763473967681 L 64.23311632343488,-13.465877068096745 A 201.52051113132597 201.52051113132597 0 0 0 24.018736134675446,-6.953439040707552 Z M 83.6084600611245,-13.68297870444772 L 83.57157856640646,-12.683659058214658 A 200.52051113132597 200.52051113132597 0 0 1 123.72155917434846,-7.101787948575402 L 123.01022830083568,-4.1873397352102115 L 130.6404934844527,-5.927757279273128 L 124.67000033903216,-10.98771889972899 L 123.95866946551938,-8.073270686363799 A 201.52051113132597 201.52051113132597 0 0 0 83.6084600611245,-13.68297870444772"/><text text-anchor="middle" pointer-events="none" font-size="8px" fill="#000000" x="73.92377951544421" y="-10.307465759605577" transform="rotate(180 73.92377951544421 -13.307465759605577)" font-family="sans-serif">trek</text></g><g class="relationship" transform="translate(93.2487248825761 -259.6280249812254) rotate(464.9628020969543)"><path class="outline" fill="#A5ABB6" stroke="none" d="M 25 0.5 L 59.186954597115474 0.5 L 59.186954597115474 -0.5 L 25 -0.5 Z M 78.52289209711547 0.5 L 112.70984669423095 0.5 L 112.70984669423095 3.5 L 119.70984669423095 0 L 112.70984669423095 -3.5 L 112.70984669423095 -0.5 L 78.52289209711547 -0.5 Z"/><text text-anchor="middle" pointer-events="none" font-size="8px" fill="#000000" x="68.85492334711547" y="3" transform="rotate(180 68.85492334711547 0)" font-family="sans-serif">trek</text></g><g class="relationship" transform="translate(55.88581656169069 -119.8247603123596) rotate(478.25614750377935)"><path class="outline" fill="#A5ABB6" stroke="none" d="M 25 0.5 L 57.66566695201848 0.5 L 57.66566695201848 -0.5 L 25 -0.5 Z M 77.00160445201848 0.5 L 109.66727140403697 0.5 L 109.66727140403697 3.5 L 116.66727140403697 0 L 109.66727140403697 -3.5 L 109.66727140403697 -0.5 L 77.00160445201848 -0.5 Z"/><text text-anchor="middle" pointer-events="none" font-size="8px" fill="#000000" x="67.33363570201848" y="3" transform="rotate(180 67.33363570201848 0)" font-family="sans-serif">trek</text></g><g class="relationship" transform="translate(155.0698272561381 -117.5692317066375) rotate(246.48230278812468)"><path class="outline" fill="#A5ABB6" stroke="none" d="M 24.018736134675446,6.953439040707552 L 24.277555179777966,5.987513214418485 A 200.52051113132597 200.52051113132597 0 0 0 50.822741406917224,11.210818057567707 L 50.69630376298595,12.202792614800472 A 201.52051113132597 201.52051113132597 0 0 1 24.018736134675446,6.953439040707552 Z M 97.17017615912573,12.723534537182019 L 97.06599771273827,11.728975915828642 A 200.52051113132597 200.52051113132597 0 0 0 123.72155917434846,7.101787948575402 L 123.01022830083568,4.1873397352102115 L 130.6404934844527,5.927757279273128 L 124.67000033903216,10.98771889972899 L 123.95866946551938,8.073270686363799 A 201.52051113132597 201.52051113132597 0 0 1 97.17017615912573,12.723534537182019"/><text text-anchor="middle" pointer-events="none" font-size="8px" fill="#000000" x="73.9237795154442" y="16.307465759605577" transform="rotate(180 73.9237795154442 13.307465759605577)" font-family="sans-serif">twowheeler</text></g><g class="relationship" transform="translate(83.91442988961894 34.050066050318385) rotate(295.140808023039)"><path class="outline" fill="#A5ABB6" stroke="none" d="M 24.018736134675446,6.953439040707552 L 24.277555179777966,5.987513214418485 A 225.1542671464527 225.1542671464527 0 0 0 57.084490024230945,12.214515996799236 L 56.97137967592657,13.208098428762725 A 226.1542671464527 226.1542671464527 0 0 1 24.018736134675446,6.953439040707552 Z M 103.45444130336999,13.691405245689879 L 103.36201468695575,12.695685746745397 A 225.1542671464527 225.1542671464527 0 0 0 136.29133324426235,7.152174504637177 L 135.5752966398227,4.238878848322403 L 143.2083625430701,5.966971703663778 L 137.24604871684855,11.036568713056877 L 136.5300121124089,8.123273056742102 A 226.1542671464527 226.1542671464527 0 0 1 103.45444130336999,13.691405245689879"/><text text-anchor="middle" pointer-events="none" font-size="8px" fill="#000000" x="80.20565813646049" y="17.147262338558903" font-family="sans-serif">twowheeler</text></g><g class="relationship" transform="translate(-10.420530364921536 146.88427174058248) rotate(309.8972864104311)"><path class="outline" fill="#A5ABB6" stroke="none" d="M 25 0.5 L 60.368829351322304 0.5 L 60.368829351322304 -0.5 L 25 -0.5 Z M 79.7047668513223 0.5 L 115.07359620264461 0.5 L 115.07359620264461 3.5 L 122.07359620264461 0 L 115.07359620264461 -3.5 L 115.07359620264461 -0.5 L 79.7047668513223 -0.5 Z"/><text text-anchor="middle" pointer-events="none" font-size="8px" fill="#000000" x="70.0367981013223" y="3" font-family="sans-serif">trek</text></g><g class="relationship" transform="translate(-10.420530364921536 146.88427174058248) rotate(309.8972864104311)"><path class="outline" fill="#A5ABB6" stroke="none" d="M 21.40063509461097,-12.933012701892217 L 21.90063509461097,-12.06698729810778 A 100.55939853832217 100.55939853832217 0 0 1 39.76139155455803,-20.170354334127907 L 39.439005549068355,-21.116962628759012 A 101.55939853832217 101.55939853832217 0 0 0 21.40063509461097,-12.933012701892217 Z M 100.49524522880594,-22.512435634553384 L 100.2164437463971,-21.552086878420155 A 100.55939853832217 100.55939853832217 0 0 1 118.42877008612096,-14.273189438738914 L 117.04903523106242,-11.609295347425117 L 124.87447877502959,-11.497790458821266 L 120.26841655953237,-17.82504822715731 L 118.88868170447383,-15.161154135843514 A 101.55939853832217 101.55939853832217 0 0 0 100.49524522880594,-22.512435634553384"/><text text-anchor="middle" pointer-events="none" font-size="8px" fill="#000000" x="69.87117081827624" y="-23.013006974453944" font-family="sans-serif">PublicTransport</text></g><g class="relationship" transform="translate(93.2487248825761 -259.6280249812254) rotate(503.77479424894926)"><path class="outline" fill="#A5ABB6" stroke="none" d="M 21.40063509461097,12.933012701892217 L 21.90063509461097,12.06698729810778 A 106.89938890794542 106.89938890794542 0 0 0 62.0826527665907,25.562244229999393 L 61.95853908439352,26.55451223507235 A 107.89938890794542 107.89938890794542 0 0 1 21.40063509461097,12.933012701892217 Z M 84.02872745291465,27.03921971341545 L 83.94829698901522,26.04245949125722 A 106.89938890794542 106.89938890794542 0 0 0 124.68405342674984,14.32432605223978 L 123.29956308357355,11.662900402395026 L 131.12479500025032,11.537419526469197 L 126.5300405509849,17.872893585366114 L 125.14555020780861,15.211467935521362 A 107.89938890794542 107.89938890794542 0 0 1 84.02872745291465,27.03921971341545"/><text text-anchor="middle" pointer-events="none" font-size="8px" fill="#000000" x="72.9921830679521" y="29.862897971056924" transform="rotate(180 72.9921830679521 26.862897971056924)" font-family="sans-serif">road</text></g><g class="relationship" transform="translate(-30.42114446557409 -169.03178825468652) rotate(443.69003335697516)"><path class="outline" fill="#A5ABB6" stroke="none" d="M 24.018736134675446,6.953439040707552 L 24.277555179777966,5.987513214418485 A 239.9732806532895 239.9732806532895 0 0 0 60.8603005814507,12.802842501793435 L 60.753926613992164,13.79716869527681 A 240.9732806532895 240.9732806532895 0 0 1 24.018736134675446,6.953439040707552 Z M 107.24067548038727,14.260395040861539 L 107.15413698576549,13.264146533234765 A 239.9732806532895 239.9732806532895 0 0 0 143.8654300192467,7.179170097057157 L 143.14687227814082,4.266495248623709 L 150.78143095577573,5.987981175882341 L 144.82350700738786,11.062736561635088 L 144.10494926628198,8.15006171320164 A 240.9732806532895 240.9732806532895 0 0 1 107.24067548038727,14.260395040861539"/><text text-anchor="middle" pointer-events="none" font-size="8px" fill="#000000" x="83.99108621973444" y="17.652466435915784" font-family="sans-serif">twowheeler</text></g><g class="relationship" transform="translate(-30.42114446557409 -169.03178825468652) rotate(443.69003335697516)"><path class="outline" fill="#A5ABB6" stroke="none" d="M 24.018736134675446,-6.953439040707552 L 24.277555179777966,-5.987513214418485 A 239.9732806532895 239.9732806532895 0 0 1 74.35321142041303,-13.862478573078675 L 74.30306417453879,-14.861220408455182 A 240.9732806532895 240.9732806532895 0 0 0 24.018736134675446,-6.953439040707552 Z M 93.67302458130473,-15.054236185900407 L 93.64278963561709,-14.054693366377762 A 239.9732806532895 239.9732806532895 0 0 1 143.8654300192467,-7.179170097057157 L 143.14687227814082,-4.266495248623709 L 150.78143095577573,-5.987981175882341 L 144.82350700738786,-11.062736561635088 L 144.10494926628198,-8.15006171320164 A 240.9732806532895 240.9732806532895 0 0 0 93.67302458130473,-15.054236185900407"/><text text-anchor="middle" pointer-events="none" font-size="8px" fill="#000000" x="83.99108621973447" y="-11.652466435915784" font-family="sans-serif">trek</text></g><g class="relationship" transform="translate(93.2487248825761 -259.6280249812254) rotate(503.77479424894926)"><path class="outline" fill="#A5ABB6" stroke="none" d="M 25 0.5 L 63.483702291144965 0.5 L 63.483702291144965 -0.5 L 25 -0.5 Z M 82.81963979114497 0.5 L 121.30334208228993 0.5 L 121.30334208228993 3.5 L 128.30334208228993 0 L 121.30334208228993 -3.5 L 121.30334208228993 -0.5 L 82.81963979114497 -0.5 Z"/><text text-anchor="middle" pointer-events="none" font-size="8px" fill="#000000" x="73.15167104114497" y="3" transform="rotate(180 73.15167104114497 0)" font-family="sans-serif">trek</text></g><g class="relationship" transform="translate(93.2487248825761 -259.6280249812254) rotate(503.77479424894926)"><path class="outline" fill="#A5ABB6" stroke="none" d="M 21.40063509461097,-12.933012701892217 L 21.90063509461097,-12.06698729810778 A 106.89938890794542 106.89938890794542 0 0 1 50.11905492587816,-23.368475406918805 L 49.883026685862376,-24.340221603163002 A 107.89938890794542 107.89938890794542 0 0 0 21.40063509461097,-12.933012701892217 Z M 96.18981063455014,-25.357215391487955 L 95.99667255196336,-24.37604380554862 A 106.89938890794542 106.89938890794542 0 0 1 124.68405342674984,-14.32432605223978 L 123.29956308357355,-11.662900402395026 L 131.12479500025032,-11.537419526469197 L 126.5300405509849,-17.872893585366114 L 125.14555020780861,-15.211467935521362 A 107.89938890794542 107.89938890794542 0 0 0 96.18981063455014,-25.357215391487955"/><text text-anchor="middle" pointer-events="none" font-size="8px" fill="#000000" x="72.99218306795208" y="-23.862897971056924" transform="rotate(180 72.99218306795208 -26.862897971056924)" font-family="sans-serif">twowheeler</text></g><g class="relationship" transform="translate(83.91442988961894 34.050066050318385) rotate(532.1436318004992)"><path class="outline" fill="#A5ABB6" stroke="none" d="M 25 0.5 L 83.45175593572527 0.5 L 83.45175593572527 -0.5 L 25 -0.5 Z M 102.78769343572527 0.5 L 161.23944937145055 0.5 L 161.23944937145055 3.5 L 168.23944937145055 0 L 161.23944937145055 -3.5 L 161.23944937145055 -0.5 L 102.78769343572527 -0.5 Z"/><text text-anchor="middle" pointer-events="none" font-size="8px" fill="#000000" x="93.11972468572527" y="3" transform="rotate(180 93.11972468572527 0)" font-family="sans-serif">trek</text></g><g class="relationship" transform="translate(-107.51124359412627 60.46400791206941) rotate(440.4273206904729)"><path class="outline" fill="#A5ABB6" stroke="none" d="M 21.40063509461097,-12.933012701892217 L 21.90063509461097,-12.06698729810778 A 112.2565893010854 112.2565893010854 0 0 1 64.71716885446247,-26.314447627261615 L 64.59858551807598,-27.307391730588407 A 113.2565893010854 113.2565893010854 0 0 0 21.40063509461097,-12.933012701892217 Z M 86.66783518642123,-27.77656174375913 L 86.59155789876337,-26.77947509988732 A 112.2565893010854 112.2565893010854 0 0 1 129.97490737744295,-14.364537441966146 L 128.58667766311507,-11.705060376778867 L 136.41172548193458,-11.56858095273231 L 131.8258803298801,-17.91050686221585 L 130.43765061555223,-15.251029797028572 A 113.2565893010854 113.2565893010854 0 0 0 86.66783518642123,-27.77656174375913"/><text text-anchor="middle" pointer-events="none" font-size="8px" fill="#000000" x="75.6323797518576" y="-24.58104728066408" font-family="sans-serif">road</text></g><g class="relationship" transform="translate(-81.1406085417717 216.82996961622274) rotate(346.1948912493607)"><path class="outline" fill="#A5ABB6" stroke="none" d="M 21.40063509461097,12.933012701892217 L 21.90063509461097,12.06698729810778 A 124.21831902893469 124.21831902893469 0 0 0 58.587420633973494,26.079803438336143 L 58.38276181896262,27.058636809977273 A 125.21831902893469 125.21831902893469 0 0 1 21.40063509461097,12.933012701892217 Z M 104.75542951675055,27.97860507485443 L 104.58975379878409,26.99242478886393 A 124.21831902893469 124.21831902893469 0 0 0 141.80344334055053,14.445689752208347 L 140.40766735879674,11.790165433216098 L 148.23229608182476,11.631466514614884 L 143.6644779828889,17.98638884419801 L 142.26870200113513,15.330864525205763 A 125.21831902893469 125.21831902893469 0 0 1 104.75542951675055,27.97860507485443"/><text text-anchor="middle" pointer-events="none" font-size="8px" fill="#000000" x="81.53604596711577" y="32.18455100595962" font-family="sans-serif">twowheeler</text></g><g class="relationship" transform="translate(84.29982068482221 176.17826094997764) rotate(240.85320684565505)"><path class="outline" fill="#A5ABB6" stroke="none" d="M 25 0.5 L 84.85228562855613 0.5 L 84.85228562855613 -0.5 L 25 -0.5 Z M 104.18822312855613 0.5 L 164.04050875711226 0.5 L 164.04050875711226 3.5 L 171.04050875711226 0 L 164.04050875711226 -3.5 L 164.04050875711226 -0.5 L 104.18822312855613 -0.5 Z"/><text text-anchor="middle" pointer-events="none" font-size="8px" fill="#000000" x="94.52025437855613" y="3" transform="rotate(180 94.52025437855613 0)" font-family="sans-serif">trek</text></g><g class="relationship" transform="translate(-81.1406085417717 216.82996961622274) rotate(346.1948912493607)"><path class="outline" fill="#A5ABB6" stroke="none" d="M 25 0.5 L 72.01286395338006 0.5 L 72.01286395338006 -0.5 L 25 -0.5 Z M 91.34880145338006 0.5 L 138.36166540676012 0.5 L 138.36166540676012 3.5 L 145.36166540676012 0 L 138.36166540676012 -3.5 L 138.36166540676012 -0.5 L 91.34880145338006 -0.5 Z"/><text text-anchor="middle" pointer-events="none" font-size="8px" fill="#000000" x="81.68083270338006" y="3" font-family="sans-serif">trek</text></g><g class="relationship" transform="translate(-81.1406085417717 216.82996961622274) rotate(346.1948912493607)"><path class="outline" fill="#A5ABB6" stroke="none" d="M 21.40063509461097,-12.933012701892217 L 21.90063509461097,-12.06698729810778 A 124.21831902893469 124.21831902893469 0 0 1 70.61018908749118,-27.984254496047498 L 70.50231767507523,-28.978419350779035 A 125.21831902893469 125.21831902893469 0 0 0 21.40063509461097,-12.933012701892217 Z M 92.56926810068374,-29.416196496283774 L 92.50091170077368,-28.418535530528715 A 124.21831902893469 124.21831902893469 0 0 1 141.80344334055053,-14.445689752208347 L 140.40766735879674,-11.790165433216098 L 148.23229608182476,-11.631466514614884 L 143.6644779828889,-17.98638884419801 L 142.26870200113513,-15.330864525205763 A 125.21831902893469 125.21831902893469 0 0 0 92.56926810068374,-29.416196496283774"/><text text-anchor="middle" pointer-events="none" font-size="8px" fill="#000000" x="81.53604596711573" y="-26.18455100595962" font-family="sans-serif">road</text></g><g class="relationship" transform="translate(-107.51124359412627 60.46400791206941) rotate(440.4273206904729)"><path class="outline" fill="#A5ABB6" stroke="none" d="M 25 0.5 L 66.1190484292476 0.5 L 66.1190484292476 -0.5 L 25 -0.5 Z M 85.4549859292476 0.5 L 126.5740343584952 0.5 L 126.5740343584952 3.5 L 133.5740343584952 0 L 126.5740343584952 -3.5 L 126.5740343584952 -0.5 L 85.4549859292476 -0.5 Z"/><text text-anchor="middle" pointer-events="none" font-size="8px" fill="#000000" x="75.7870171792476" y="3" font-family="sans-serif">trek</text></g><g class="relationship" transform="translate(-107.51124359412627 60.46400791206941) rotate(440.4273206904729)"><path class="outline" fill="#A5ABB6" stroke="none" d="M 21.40063509461097,12.933012701892217 L 21.90063509461097,12.06698729810778 A 112.2565893010854 112.2565893010854 0 0 0 52.7325624822364,24.219192018413338 L 52.50721831829544,25.19347124316245 A 113.2565893010854 113.2565893010854 0 0 1 21.40063509461097,12.933012701892217 Z M 98.83811710053874,26.178419472872974 L 98.65438220719787,25.195443639513357 A 112.2565893010854 112.2565893010854 0 0 0 129.97490737744295,14.364537441966146 L 128.58667766311507,11.705060376778867 L 136.41172548193458,11.56858095273231 L 131.8258803298801,17.91050686221585 L 130.43765061555223,15.251029797028572 A 113.2565893010854 113.2565893010854 0 0 1 98.83811710053874,26.178419472872974"/><text text-anchor="middle" pointer-events="none" font-size="8px" fill="#000000" x="75.63237975185761" y="30.58104728066408" font-family="sans-serif">twowheeler</text></g><g class="relationship" transform="translate(83.91442988961894 34.050066050318385) rotate(449.84463876484347)"><path class="outline" fill="#A5ABB6" stroke="none" d="M 25 0.5 L 57.89638995304564 0.5 L 57.89638995304564 -0.5 L 25 -0.5 Z M 77.23232745304564 0.5 L 110.12871740609128 0.5 L 110.12871740609128 3.5 L 117.12871740609128 0 L 110.12871740609128 -3.5 L 110.12871740609128 -0.5 L 77.23232745304564 -0.5 Z"/><text text-anchor="middle" pointer-events="none" font-size="8px" fill="#000000" x="67.56435870304564" y="3" font-family="sans-serif">trek</text></g><g class="relationship" transform="translate(155.0698272561381 -117.5692317066375) rotate(195.5061257060106)"><path class="outline" fill="#A5ABB6" stroke="none" d="M 24.018736134675446,-6.953439040707552 L 24.277555179777966,-5.987513214418485 A 274.0711293063755 274.0711293063755 0 0 1 83.07410871089171,-15.057333894291503 L 83.0298199363796,-16.05635266511223 A 275.0711293063755 275.0711293063755 0 0 0 24.018736134675446,-6.953439040707552 Z M 102.39616553841623,-16.232438329209117 L 102.37004944837251,-15.232779412457603 A 274.0711293063755 274.0711293063755 0 0 1 161.32180065689332,-7.233567966893692 L 160.59816277135045,-4.322151093512785 L 168.23571300903924,-6.03031571285717 L 162.28665117095048,-11.115457131401568 L 161.5630132854076,-8.204040258020662 A 275.0711293063755 275.0711293063755 0 0 0 102.39616553841623,-16.232438329209117"/><text text-anchor="middle" pointer-events="none" font-size="8px" fill="#000000" x="92.7159885209239" y="-12.814911666601063" transform="rotate(180 92.7159885209239 -15.814911666601063)" font-family="sans-serif">trek</text></g><g class="relationship" transform="translate(155.0698272561381 -117.5692317066375) rotate(195.5061257060106)"><path class="outline" fill="#A5ABB6" stroke="none" d="M 24.018736134675446,6.953439040707552 L 24.277555179777966,5.987513214418485 A 274.0711293063755 274.0711293063755 0 0 0 69.56795303536032,14.123867244555413 L 69.47438451471182,15.119480086951285 A 275.0711293063755 275.0711293063755 0 0 1 24.018736134675446,6.953439040707552 Z M 115.96639521075673,15.542201892440062 L 115.89094559121263,14.545052277331763 A 274.0711293063755 274.0711293063755 0 0 0 161.32180065689332,7.233567966893692 L 160.59816277135045,4.322151093512785 L 168.23571300903924,6.03031571285717 L 162.28665117095048,11.115457131401568 L 161.5630132854076,8.204040258020662 A 275.0711293063755 275.0711293063755 0 0 1 115.96639521075673,15.542201892440062"/><text text-anchor="middle" pointer-events="none" font-size="8px" fill="#000000" x="92.71598852092389" y="18.814911666601063" transform="rotate(180 92.71598852092389 15.814911666601063)" font-family="sans-serif">twowheeler</text></g><g class="relationship" transform="translate(-10.420530364921536 146.88427174058248) rotate(221.67222031902315)"><path class="outline" fill="#A5ABB6" stroke="none" d="M 24.018736134675446,-6.953439040707552 L 24.277555179777966,-5.987513214418485 A 151.37263685280197 151.37263685280197 0 0 1 51.82555568895633,-10.697972170534882 L 51.74872462452145,-11.695016295705784 A 152.37263685280197 152.37263685280197 0 0 0 24.018736134675446,-6.953439040707552 Z M 71.13351936732668,-11.951849944744993 L 71.08313077380203,-10.953120256770006 A 151.37263685280197 151.37263685280197 0 0 1 98.7462593323831,-6.974166376368275 L 98.04684792828576,-4.056834772347475 L 105.6699349757812,-5.828428367477919 L 99.67880787117957,-10.863941848396006 L 98.97939646708222,-7.946610244375207 A 152.37263685280197 152.37263685280197 0 0 0 71.13351936732668,-11.951849944744993"/><text text-anchor="middle" pointer-events="none" font-size="8px" fill="#000000" x="61.44365724518056" y="-8.63208246721382" transform="rotate(180 61.44365724518056 -11.63208246721382)" font-family="sans-serif">trek</text></g><g class="relationship" transform="translate(-10.420530364921536 146.88427174058248) rotate(221.67222031902315)"><path class="outline" fill="#A5ABB6" stroke="none" d="M 24.018736134675446,6.953439040707552 L 24.277555179777966,5.987513214418485 A 151.37263685280197 151.37263685280197 0 0 0 50.4964797915026,10.589664213190986 L 50.41086856755484,11.585992832841214 A 152.37263685280197 152.37263685280197 0 0 1 24.018736134675446,6.953439040707552 Z M 72.4737942537864,11.878309660935514 L 72.41460962631402,10.880062607410707 A 151.37263685280197 151.37263685280197 0 0 0 98.7462593323831,6.974166376368275 L 98.04684792828576,4.056834772347475 L 105.6699349757812,5.828428367477919 L 99.67880787117957,10.863941848396006 L 98.97939646708222,7.946610244375207 A 152.37263685280197 152.37263685280197 0 0 1 72.4737942537864,11.878309660935514"/><text text-anchor="middle" pointer-events="none" font-size="8px" fill="#000000" x="61.44365724518058" y="14.63208246721382" transform="rotate(180 61.44365724518058 11.63208246721382)" font-family="sans-serif">road</text></g></g><g class="layer nodes"><g class="node" aria-label="graph-node178" transform="translate(-10.420530364921536,146.88427174058248)"><circle class="outline" cx="0" cy="0" r="25" fill="#57C7E3" stroke="#23b3d7" stroke-width="2px"/><text class="caption" text-anchor="middle" pointer-events="none" x="0" y="5" font-size="10px" fill="#2A2C34" font-family="sans-serif"> Darjeeling</text></g><g class="node" aria-label="graph-node180" transform="translate(-11.181478408637656,4.961431762036355)"><circle class="outline" cx="0" cy="0" r="25" fill="#F16667" stroke="#eb2728" stroke-width="2px"/><text class="caption" text-anchor="middle" pointer-events="none" x="0" y="5" font-size="10px" fill="#FFFFFF" font-family="sans-serif"> Sandakp…</text></g><g class="node" aria-label="graph-node177" transform="translate(83.91442988961894,34.050066050318385)"><circle class="outline" cx="0" cy="0" r="25" fill="#57C7E3" stroke="#23b3d7" stroke-width="2px"/><text class="caption" text-anchor="middle" pointer-events="none" x="0" y="5" font-size="10px" fill="#2A2C34" font-family="sans-serif"> Rimbik</text></g><g class="node" aria-label="graph-node181" transform="translate(155.0698272561381,-117.5692317066375)"><circle class="outline" cx="0" cy="0" r="25" fill="#D9C8AE" stroke="#c0a378" stroke-width="2px"/><text class="caption" text-anchor="middle" pointer-events="none" x="0" y="5" font-size="10px" fill="#2A2C34" font-family="sans-serif"> Sirikhola</text></g><g class="node" aria-label="graph-node185" transform="translate(93.2487248825761,-259.6280249812254)"><circle class="outline" cx="0" cy="0" r="25" fill="#D9C8AE" stroke="#c0a378" stroke-width="2px"/><text class="caption" text-anchor="middle" pointer-events="none" x="0" y="5" font-size="10px" fill="#2A2C34" font-family="sans-serif"> Rammam</text></g><g class="node" aria-label="graph-node186" transform="translate(55.88581656169069,-119.8247603123596)"><circle class="outline" cx="0" cy="0" r="25" fill="#F16667" stroke="#eb2728" stroke-width="2px"/><text class="caption" text-anchor="middle" pointer-events="none" x="0" y="5" font-size="10px" fill="#FFFFFF" font-family="sans-serif"> Sabargr…</text></g><g class="node" aria-label="graph-node182" transform="translate(-30.42114446557409,-169.03178825468652)"><circle class="outline" cx="0" cy="0" r="25" fill="#D9C8AE" stroke="#c0a378" stroke-width="2px"/><text class="caption" text-anchor="middle" pointer-events="none" x="0" y="5" font-size="10px" fill="#2A2C34" font-family="sans-serif"> Gurdum</text></g><g class="node" aria-label="graph-node183" transform="translate(-107.51124359412627,60.46400791206941)"><circle class="outline" cx="0" cy="0" r="25" fill="#D9C8AE" stroke="#c0a378" stroke-width="2px"/><text class="caption" text-anchor="middle" pointer-events="none" x="0" y="5" font-size="10px" fill="#2A2C34" font-family="sans-serif"> Tumbling</text></g><g class="node" aria-label="graph-node184" transform="translate(-81.1406085417717,216.82996961622274)"><circle class="outline" cx="0" cy="0" r="25" fill="#D9C8AE" stroke="#c0a378" stroke-width="2px"/><text class="caption" text-anchor="middle" pointer-events="none" x="0" y="5" font-size="10px" fill="#2A2C34" font-family="sans-serif"> Gairibus</text></g><g class="node" aria-label="graph-node179" transform="translate(84.29982068482221,176.17826094997764)"><circle class="outline" cx="0" cy="0" r="25" fill="#D9C8AE" stroke="#c0a378" stroke-width="2px"/><text class="caption" text-anchor="middle" pointer-events="none" x="0" y="5" font-size="10px" fill="#2A2C34" font-family="sans-serif"> BhikeBh…</text></g></g></svg>